<?xml version="1.0" encoding="UTF-8"?>
<!-- Generator: visioncortex VTracer 0.6.3 -->
<svg version="1.1" xmlns="http://www.w3.org/2000/svg" width="1280" height="1280">
<path d="M0 0 C2.42 -0 4.85 -0 7.27 -0 C12.32 -0 17.37 -0 22.42 0 C28.9 0.01 35.39 0 41.88 -0 C46.87 -0 51.86 -0 56.85 -0 C59.24 -0 61.63 -0 64.03 -0 C67.35 -0.01 70.68 -0 74.01 0 C75 0 76 -0 77.02 -0 C77.92 0 78.82 0 79.75 0.01 C80.54 0.01 81.32 0.01 82.13 0.01 C83.92 0.13 83.92 0.13 84.92 1.13 C87.96 1.21 91 1.13 94.04 1.07 C96.92 1.13 96.92 1.13 99.92 2.13 C103.56 2.59 107.2 3 110.85 3.38 C116.72 4.03 116.72 4.03 118.92 5.13 C120.1 5.13 121.27 5.13 122.48 5.13 C123.62 5.13 124.75 5.13 125.92 5.13 C126.25 5.46 126.58 5.79 126.92 6.13 C127.83 6.09 128.74 6.05 129.67 6.01 C134.55 5.92 139.1 7.25 143.82 8.4 C146.26 8.98 148.62 9.44 151.11 9.76 C153.92 10.13 153.92 10.13 155.92 11.13 C157.92 11.48 159.92 11.81 161.92 12.13 C167.69 13.2 173.28 14.51 178.92 16.13 C182.19 16.89 185.46 17.63 188.74 18.35 C191.92 19.13 191.92 19.13 194.95 20.16 C197.95 21.14 200.81 21.63 203.92 22.13 C211.43 24.03 218.66 26.31 225.79 29.32 C228.46 30.34 231.08 30.83 233.92 31.13 C233.92 31.79 233.92 32.45 233.92 33.13 C234.87 33.22 235.82 33.3 236.8 33.38 C240.95 33.97 244.55 35.48 248.4 37.1 C250.64 38.02 252.87 38.82 255.17 39.57 C259.25 40.9 263.31 42.28 267.36 43.7 C268.55 44.11 269.75 44.52 270.98 44.95 C273.92 46.13 273.92 46.13 275.92 48.13 C277.36 48.78 278.82 49.36 280.29 49.92 C295.75 55.92 310.71 63.37 325.42 71.01 C326.43 71.53 327.44 72.05 328.47 72.59 C334.04 75.52 339.48 78.6 344.84 81.89 C347.05 83.25 347.05 83.25 349.98 84.63 C353.35 86.35 356.37 88.4 359.49 90.52 C365.41 94.45 371.5 98.09 377.92 101.13 C377.92 101.79 377.92 102.45 377.92 103.13 C378.65 103.4 379.39 103.67 380.14 103.94 C382.89 105.12 385.01 106.45 387.42 108.2 C388.29 108.81 389.15 109.43 390.04 110.07 C390.99 110.75 391.94 111.43 392.92 112.13 C395.11 113.66 397.29 115.18 399.48 116.7 C400.03 117.08 400.58 117.46 401.15 117.85 C405.17 120.64 409.26 123.33 413.41 125.94 C413.91 126.33 414.41 126.73 414.92 127.13 C414.92 127.79 414.92 128.45 414.92 129.13 C415.75 129.52 415.75 129.52 416.59 129.91 C419.27 131.31 421.69 132.92 424.17 134.63 C425.06 135.24 425.96 135.85 426.88 136.48 C427.55 137.02 428.23 137.57 428.92 138.13 C428.92 138.79 428.92 139.45 428.92 140.13 C429.66 140.38 430.41 140.63 431.17 140.88 C434.24 142.28 435.61 143.69 437.92 146.13 C439.12 147.21 440.33 148.27 441.55 149.32 C445.53 152.78 449.45 156.29 453.36 159.82 C455.02 161.32 456.69 162.81 458.36 164.29 C463.7 169.02 468.79 173.92 473.72 179.06 C476.58 181.99 479.39 184.09 482.92 186.13 C483.96 187.78 484.96 189.45 485.92 191.13 C487.56 192.83 489.23 194.49 490.92 196.13 C492.1 197.29 493.27 198.46 494.45 199.62 C495.07 200.24 495.7 200.86 496.34 201.5 C506.85 211.95 506.85 211.95 511.32 217.26 C513.27 219.55 515.32 221.74 517.36 223.95 C521.24 228.23 524.6 232.74 527.94 237.46 C530.47 240.87 533.26 243.97 536.16 247.06 C540.92 252.66 540.92 252.66 540.92 256.13 C541.91 256.46 542.9 256.79 543.92 257.13 C544.9 258.51 545.86 259.9 546.76 261.34 C548.02 263.28 549.39 265.1 550.8 266.95 C553.54 270.56 556.05 274.3 558.54 278.1 C559.99 280.29 559.99 280.29 562.11 282.82 C563.92 285.13 563.92 285.13 565.23 287.82 C566.71 290.72 568.28 293.13 570.17 295.76 C573.48 300.39 576.34 305.18 579.16 310.11 C581.4 313.95 583.8 317.66 586.25 321.37 C588.36 324.86 590.14 328.47 591.92 332.13 C592.53 333.36 593.14 334.59 593.75 335.82 C594.2 336.73 594.2 336.73 594.66 337.66 C597.89 344.16 601.2 350.6 604.61 357.01 C609.48 366.18 614.02 375.16 617.67 384.9 C619.2 388.85 620.96 392.68 622.73 396.52 C625.9 403.47 628.43 410.57 630.8 417.83 C631.81 420.8 632.9 423.73 634.04 426.66 C637.59 435.86 640.46 445.21 643.21 454.68 C643.9 457.04 644.6 459.4 645.3 461.76 C648.94 473.91 651.99 486.04 654.39 498.49 C655.29 503.14 656.29 507.75 657.39 512.35 C659.03 519.42 660.3 526.53 661.48 533.7 C661.7 535 661.92 536.3 662.14 537.64 C663.67 546.94 664.79 556.23 665.56 565.62 C665.7 568.98 665.7 568.98 666.92 571.13 C667.13 573.18 667.29 575.23 667.42 577.28 C667.55 579.13 667.55 579.13 667.67 581.02 C667.8 582.96 667.8 582.96 667.92 584.95 C668.09 587.49 668.25 590.04 668.42 592.59 C668.49 593.72 668.57 594.86 668.64 596.03 C668.84 599.01 668.84 599.01 669.43 601.39 C670.02 604.68 670.05 607.78 670.05 611.12 C670.05 611.81 670.05 612.49 670.06 613.19 C670.06 615.44 670.06 617.69 670.05 619.94 C670.06 621.51 670.06 623.08 670.06 624.65 C670.06 627.94 670.06 631.23 670.05 634.51 C670.05 638.72 670.05 642.92 670.06 647.13 C670.06 650.37 670.06 653.61 670.06 656.85 C670.06 658.4 670.06 659.95 670.06 661.5 C670.06 663.67 670.06 665.84 670.05 668.01 C670.05 669.25 670.05 670.48 670.05 671.75 C669.93 674.97 669.51 677.97 668.92 681.13 C668.73 683.43 668.56 685.73 668.42 688.03 C668.34 689.31 668.26 690.6 668.17 691.92 C668.05 693.95 667.92 695.97 667.8 698 C667.68 699.97 667.55 701.93 667.42 703.9 C667.35 705.07 667.28 706.25 667.2 707.45 C666.92 710.13 666.92 710.13 665.92 711.13 C665.67 712.94 665.48 714.76 665.31 716.58 C665.2 717.73 665.09 718.88 664.97 720.06 C664.85 721.3 664.73 722.54 664.61 723.82 C663.32 736.41 661.45 748.74 658.92 761.13 C658.61 762.68 658.61 762.68 658.29 764.26 C650.58 802.1 650.58 802.1 645.05 819.54 C644.18 822.29 643.35 825.05 642.55 827.82 C639.8 837.21 636.82 846.4 633.29 855.52 C632.05 858.79 630.93 862.06 629.86 865.38 C628.23 870.39 626.28 875.2 624.21 880.04 C622.4 884.39 620.77 888.8 619.13 893.22 C617.95 896.07 616.51 898.5 614.92 901.13 C614.18 902.81 613.45 904.5 612.74 906.19 C608 917.39 602.46 928.26 596.65 938.93 C595.01 941.97 593.46 945.04 591.92 948.13 C587.04 957.48 581.66 966.54 575.8 975.31 C574.08 977.89 572.56 980.54 571.04 983.24 C566.81 990.43 561.83 997.18 557.07 1004.02 C555.64 1006.09 554.23 1008.17 552.84 1010.27 C551.23 1012.68 549.56 1015.01 547.8 1017.32 C546.09 1019.56 544.49 1021.79 542.92 1024.13 C542.26 1024.13 541.6 1024.13 540.92 1024.13 C540.66 1024.88 540.39 1025.62 540.12 1026.38 C538.94 1029.09 537.71 1030.89 535.8 1033.13 C535.2 1033.85 534.59 1034.58 533.96 1035.32 C533.33 1036.06 532.7 1036.81 532.05 1037.57 C527.23 1043.21 527.23 1043.21 522.9 1049.21 C520.33 1053.01 517.28 1056.2 514.11 1059.51 C512.84 1060.85 511.57 1062.19 510.3 1063.53 C509.71 1064.16 509.11 1064.79 508.5 1065.44 C506.77 1067.3 505.11 1069.2 503.48 1071.13 C501.18 1073.76 498.82 1076.3 496.35 1078.77 C495.35 1079.77 495.35 1079.77 494.34 1080.78 C491.82 1083.3 489.29 1085.81 486.76 1088.32 C482.86 1092.18 478.99 1096.07 475.12 1099.97 C473.28 1101.82 471.45 1103.66 469.61 1105.51 C468.7 1106.43 467.79 1107.35 466.85 1108.3 C462.25 1112.91 457.62 1117.39 452.68 1121.62 C451.07 1123.01 449.5 1124.42 447.95 1125.86 C447.07 1126.67 446.2 1127.48 445.3 1128.32 C443.98 1129.55 443.98 1129.55 442.63 1130.8 C439.86 1133.19 436.97 1135.12 433.92 1137.13 C432.09 1138.59 430.28 1140.07 428.48 1141.57 C416.9 1151.13 416.9 1151.13 413.92 1151.13 C413.59 1152.12 413.26 1153.11 412.92 1154.13 C411.54 1155.11 410.15 1156.08 408.71 1156.98 C406.8 1158.21 405.03 1159.56 403.23 1160.95 C399.21 1164 394.99 1166.67 390.71 1169.35 C388.06 1171.04 385.49 1172.81 382.92 1174.63 C370.78 1183.21 357.92 1190.94 344.86 1198.04 C342.99 1199.1 341.22 1200.25 339.42 1201.45 C334.74 1204.42 329.73 1206.65 324.71 1208.97 C319.53 1211.37 314.4 1213.83 309.3 1216.38 C308.66 1216.7 308.02 1217.02 307.36 1217.34 C304.25 1218.9 301.2 1220.53 298.2 1222.28 C295.19 1223.98 292.37 1225.15 289.14 1226.29 C286.61 1227.25 284.18 1228.37 281.73 1229.51 C275.57 1232.35 269.27 1234.76 262.92 1237.13 C262.29 1237.37 261.67 1237.61 261.02 1237.85 C238.42 1246.37 215.52 1254.31 191.97 1259.7 C188.13 1260.58 184.37 1261.56 180.61 1262.76 C176.14 1264.16 171.68 1264.89 167.05 1265.6 C163.82 1266.15 160.67 1266.87 157.48 1267.63 C152.08 1268.92 146.69 1269.85 141.19 1270.61 C138.71 1271.01 136.37 1271.5 133.94 1272.09 C127.51 1273.56 120.97 1274.06 114.42 1274.7 C111.89 1274.94 109.36 1275.19 106.83 1275.45 C105.72 1275.56 104.61 1275.66 103.46 1275.78 C100.99 1275.86 100.99 1275.86 99.92 1277.13 C97.75 1277.35 95.58 1277.5 93.4 1277.63 C92.75 1277.67 92.09 1277.71 91.42 1277.76 C89.32 1277.89 87.21 1278.01 85.11 1278.13 C83.02 1278.26 80.93 1278.38 78.83 1278.51 C76.93 1278.63 75.02 1278.74 73.11 1278.85 C70.13 1279.01 70.13 1279.01 68.16 1279.64 C65.06 1280.32 62.1 1280.26 58.92 1280.26 C58.23 1280.26 57.53 1280.27 56.81 1280.27 C54.51 1280.27 52.22 1280.27 49.92 1280.27 C48.32 1280.27 46.72 1280.27 45.12 1280.27 C41.78 1280.27 38.43 1280.27 35.08 1280.26 C30.79 1280.26 26.5 1280.26 22.21 1280.27 C18.9 1280.27 15.6 1280.27 12.3 1280.27 C10.72 1280.27 9.14 1280.27 7.56 1280.27 C5.35 1280.27 3.13 1280.27 0.92 1280.26 C-0.34 1280.26 -1.59 1280.26 -2.89 1280.26 C-5.52 1280.15 -7.58 1279.86 -10.08 1279.13 C-12.38 1278.93 -14.69 1278.77 -17 1278.63 C-18.35 1278.55 -19.7 1278.47 -21.04 1278.38 C-23.16 1278.26 -25.28 1278.13 -27.41 1278.01 C-29.46 1277.89 -31.51 1277.76 -33.56 1277.63 C-34.78 1277.56 -36.01 1277.49 -37.27 1277.41 C-40.08 1277.13 -40.08 1277.13 -41.08 1276.13 C-43.56 1275.78 -46.02 1275.49 -48.52 1275.23 C-50.07 1275.06 -51.62 1274.89 -53.17 1274.72 C-55.61 1274.46 -58.06 1274.2 -60.5 1273.94 C-76.73 1272.2 -76.73 1272.2 -83.19 1270.59 C-86.54 1269.78 -89.94 1269.26 -93.33 1268.7 C-100.65 1267.44 -107.86 1265.87 -115.08 1264.13 C-116.51 1263.82 -117.95 1263.5 -119.39 1263.2 C-130.78 1260.67 -141.96 1257.66 -153.08 1254.13 C-155.2 1253.49 -157.33 1252.84 -159.45 1252.2 C-171.48 1248.49 -183.29 1244.38 -195.05 1239.9 C-197.77 1238.87 -200.5 1237.85 -203.24 1236.83 C-205.88 1235.84 -208.53 1234.84 -211.17 1233.85 C-213.05 1233.15 -214.92 1232.45 -216.8 1231.75 C-217.94 1231.32 -219.09 1230.89 -220.27 1230.45 C-221.27 1230.07 -222.27 1229.7 -223.31 1229.31 C-226.08 1228.13 -226.08 1228.13 -228.5 1226.68 C-230.98 1225.19 -233.48 1224.06 -236.14 1222.95 C-247.33 1218.22 -258.21 1212.67 -268.88 1206.86 C-271.92 1205.22 -274.99 1203.67 -278.08 1202.13 C-287.43 1197.25 -296.49 1191.87 -305.26 1186.01 C-307.84 1184.29 -310.48 1182.77 -313.18 1181.25 C-320.37 1177.02 -327.13 1172.04 -333.96 1167.28 C-336.03 1165.85 -338.12 1164.44 -340.21 1163.05 C-342.63 1161.44 -344.96 1159.77 -347.27 1158.01 C-349.51 1156.3 -351.73 1154.7 -354.08 1153.13 C-354.08 1152.47 -354.08 1151.81 -354.08 1151.13 C-355.17 1150.75 -355.17 1150.75 -356.28 1150.36 C-359.26 1149.05 -361.33 1147.52 -363.83 1145.45 C-367.08 1142.77 -370.35 1140.13 -373.7 1137.57 C-377.98 1134.25 -382.05 1130.75 -386.08 1127.13 C-386.86 1126.43 -387.64 1125.73 -388.45 1125.01 C-390.14 1123.49 -391.83 1121.96 -393.52 1120.43 C-395.16 1118.96 -396.8 1117.5 -398.45 1116.05 C-404.22 1110.95 -409.69 1105.6 -415.08 1100.09 C-417.73 1097.4 -420.38 1094.82 -423.31 1092.43 C-425.55 1090.57 -427.32 1088.87 -429.14 1086.63 C-432.43 1082.76 -435.97 1079.2 -439.58 1075.63 C-443.65 1071.6 -447.62 1067.54 -451.33 1063.16 C-454.37 1059.64 -457.57 1056.25 -460.75 1052.84 C-467.08 1045.48 -467.08 1045.48 -467.08 1042.13 C-467.74 1042.13 -468.4 1042.13 -469.08 1042.13 C-471.02 1039.9 -472.84 1037.66 -474.64 1035.32 C-475.4 1034.36 -475.4 1034.36 -476.18 1033.37 C-478.35 1030.58 -479.95 1028.52 -481.08 1025.13 C-481.74 1025.13 -482.4 1025.13 -483.08 1025.13 C-486.08 1020.75 -486.08 1020.75 -486.08 1018.13 C-486.74 1018.13 -487.4 1018.13 -488.08 1018.13 C-489.63 1016.04 -491.05 1013.95 -492.45 1011.76 C-493.35 1010.38 -494.25 1009.01 -495.15 1007.63 C-495.62 1006.9 -496.1 1006.17 -496.59 1005.42 C-499.14 1001.51 -501.74 997.64 -504.33 993.76 C-505.76 991.61 -507.2 989.45 -508.63 987.3 C-509.64 985.79 -510.65 984.28 -511.67 982.77 C-514.23 978.94 -516.76 975.12 -519.08 971.13 C-519.83 969.86 -520.59 968.59 -521.35 967.31 C-535.06 944.14 -535.06 944.14 -536.08 939.13 C-536.74 939.13 -537.4 939.13 -538.08 939.13 C-543.69 927.52 -549.29 915.9 -554.44 904.07 C-555.93 900.66 -557.48 897.3 -559.16 893.98 C-560.72 890.9 -562.06 887.81 -563.27 884.57 C-564.92 880.17 -566.6 875.79 -568.33 871.43 C-568.73 870.41 -569.13 869.4 -569.54 868.35 C-570.34 866.32 -571.15 864.29 -571.96 862.27 C-577.08 849.27 -577.08 849.27 -577.08 844.13 C-577.74 844.13 -578.4 844.13 -579.08 844.13 C-579.2 842.68 -579.2 842.68 -579.33 841.2 C-579.75 838.21 -580.57 835.9 -581.89 833.2 C-584.23 828.26 -585.45 823.19 -586.68 817.89 C-587.62 813.89 -588.75 810.03 -590.08 806.13 C-591.32 801.47 -592.39 796.99 -592.08 792.13 C-592.74 792.13 -593.4 792.13 -594.08 792.13 C-594.13 791.55 -594.18 790.97 -594.23 790.38 C-594.3 789.59 -594.38 788.81 -594.45 788.01 C-594.52 787.24 -594.59 786.48 -594.66 785.69 C-595.15 782.69 -596.09 780 -597.08 777.13 C-597.65 774.97 -598.19 772.81 -598.7 770.63 C-598.96 769.55 -599.22 768.47 -599.49 767.35 C-600.07 764.2 -600.11 761.33 -600.08 758.13 C-600.7 756.12 -601.38 754.12 -602.08 752.13 C-603.44 747.04 -604.21 742.43 -604.08 737.13 C-604.41 736.8 -604.74 736.47 -605.08 736.13 C-605.08 733.47 -605.08 730.8 -605.08 728.13 C-605.41 727.8 -605.74 727.47 -606.08 727.13 C-606.08 724.8 -606.08 722.47 -606.08 720.13 C-606.41 719.8 -606.74 719.47 -607.08 719.13 C-607.31 717.12 -607.49 715.09 -607.64 713.07 C-607.72 711.97 -607.81 710.86 -607.89 709.72 C-607.96 708.87 -608.02 708.01 -608.08 707.13 C-608.41 707.13 -608.74 707.13 -609.08 707.13 C-609.08 702.84 -609.08 698.55 -609.08 694.13 C-609.41 694.13 -609.74 694.13 -610.08 694.13 C-610.1 680.15 -610.12 666.16 -610.13 652.17 C-610.14 645.68 -610.14 639.18 -610.15 632.68 C-610.16 626.41 -610.17 620.13 -610.17 613.85 C-610.17 611.47 -610.18 609.08 -610.18 606.69 C-610.25 574.48 -610.25 574.48 -608.08 570.13 C-607.75 567.85 -607.47 565.57 -607.21 563.28 C-607.05 561.86 -606.88 560.43 -606.71 559.01 C-606.46 556.78 -606.21 554.56 -605.96 552.33 C-604.77 541.82 -603.14 531.5 -601.08 521.13 C-600.7 519.12 -600.32 517.1 -599.94 515.09 C-597.76 503.78 -595.3 492.56 -592.52 481.38 C-592.09 479.69 -592.09 479.69 -591.67 477.96 C-589.97 471.28 -588.07 464.68 -586.01 458.1 C-585.07 455.1 -584.16 452.09 -583.27 449.07 C-577.82 431.4 -571.44 413.89 -564.23 396.87 C-563.12 394.24 -562.06 391.6 -561.02 388.95 C-557.84 381.02 -554.23 373.51 -550.15 366.01 C-547.22 360.56 -544.82 354.99 -542.44 349.28 C-540.94 345.81 -539.23 342.56 -537.33 339.3 C-536 337 -534.76 334.67 -533.52 332.32 C-529.14 324.27 -524.33 316.47 -519.59 308.64 C-518.02 306.04 -516.47 303.44 -514.91 300.84 C-499.97 275.94 -482.32 252.69 -464.08 230.13 C-462.98 228.76 -462.98 228.76 -461.86 227.35 C-457.79 222.28 -453.62 217.53 -448.95 213 C-447.18 211.24 -445.57 209.42 -443.95 207.51 C-438.86 201.58 -433.2 196.18 -427.65 190.69 C-424.73 187.8 -421.84 184.9 -418.95 181.98 C-416.39 179.41 -413.83 176.83 -411.27 174.26 C-410.4 173.39 -409.54 172.51 -408.65 171.61 C-403.62 166.57 -398.48 161.77 -393.08 157.13 C-390.63 154.91 -388.2 152.68 -385.77 150.44 C-382.99 148.06 -380.12 145.89 -377.18 143.72 C-373.75 141.13 -370.45 138.37 -367.14 135.63 C-362.29 131.65 -357.45 127.88 -352.14 124.52 C-349.7 122.88 -347.47 121.06 -345.2 119.2 C-341.03 115.8 -336.72 112.89 -332.15 110.06 C-328.47 107.75 -324.87 105.36 -321.27 102.95 C-320.64 102.53 -320.02 102.11 -319.38 101.68 C-318.78 101.28 -318.18 100.88 -317.56 100.46 C-316.68 99.88 -316.68 99.88 -315.79 99.28 C-314.15 98.18 -312.51 97.07 -310.88 95.97 C-308.66 94.51 -306.47 93.19 -304.14 91.95 C-300.63 90.03 -297.21 88.01 -293.8 85.93 C-287.26 81.93 -280.64 78.31 -273.73 74.94 C-269.67 72.95 -265.69 70.83 -261.7 68.7 C-248.25 61.53 -234.72 54.72 -220.52 49.12 C-218.3 48.22 -216.13 47.26 -213.95 46.26 C-209.24 44.14 -204.42 42.35 -199.58 40.56 C-195.1 38.9 -190.64 37.18 -186.2 35.42 C-178.25 32.28 -170.3 29.5 -162.08 27.13 C-160.25 26.59 -158.43 26.05 -156.61 25.51 C-139.86 20.56 -123.25 15.66 -106.01 12.82 C-102.41 12.19 -98.88 11.43 -95.33 10.57 C-90.03 9.3 -84.74 8.4 -79.34 7.66 C-76.86 7.26 -74.5 6.76 -72.06 6.17 C-65.83 4.75 -59.49 4.21 -53.14 3.57 C-50.71 3.32 -48.29 3.07 -45.86 2.82 C-44.8 2.71 -43.74 2.6 -42.64 2.49 C-40.09 2.27 -40.09 2.27 -38.08 1.13 C-25.56 -0.68 -12.61 -0.01 0 0 Z M-608.08 572.13 C-607.08 575.13 -607.08 575.13 -607.08 575.13 Z M-609.08 585.13 C-608.08 587.13 -608.08 587.13 -608.08 587.13 Z " fill="#002235" transform="translate(610.078125,-0.1328125)"/>
<path d="M0 0 C2.03 1.61 4.05 3.24 6.06 4.88 C7.06 5.67 8.06 6.46 9.08 7.28 C17.51 14.14 25.18 21.78 32.88 29.44 C33.41 29.97 33.95 30.5 34.5 31.05 C41.49 37.98 47.96 45.12 54.06 52.88 C55.3 54.4 55.3 54.4 56.57 55.95 C101.71 113.26 121.46 179.87 125.06 251.88 C125.61 251.91 126.16 251.94 126.73 251.98 C153.68 253.77 178.29 260.04 202.06 272.88 C203.12 273.44 204.18 274.01 205.27 274.59 C226.16 286.24 244 303.93 257.06 323.88 C257.76 324.91 258.46 325.95 259.18 327.02 C281.3 361.25 290.15 404.56 281.57 444.63 C281.4 445.37 281.23 446.11 281.06 446.88 C280.89 447.67 280.71 448.46 280.53 449.27 C275.54 470.94 266.88 491.34 253.06 508.88 C252.51 509.63 251.95 510.39 251.38 511.17 C226.34 544.39 188.96 565.63 148.06 571.88 C141.05 572.75 134.14 573.02 127.09 573.01 C126.02 573.01 124.96 573.01 123.86 573.01 C120.29 573.02 116.73 573.02 113.17 573.02 C110.58 573.02 108 573.02 105.42 573.02 C99.07 573.03 92.71 573.03 86.36 573.03 C78.75 573.04 71.14 573.04 63.53 573.05 C45.13 573.07 26.74 573.07 8.34 573.08 C-0.36 573.08 -9.07 573.08 -17.78 573.09 C-47.61 573.1 -77.43 573.11 -107.26 573.11 C-109.13 573.11 -111.01 573.11 -112.88 573.11 C-114.75 573.11 -116.63 573.11 -118.5 573.11 C-122.27 573.11 -126.03 573.11 -129.79 573.12 C-130.73 573.12 -131.66 573.12 -132.62 573.12 C-162.86 573.12 -193.1 573.14 -223.34 573.16 C-255.33 573.18 -287.33 573.2 -319.32 573.2 C-322.84 573.2 -326.35 573.2 -329.87 573.2 C-330.73 573.2 -331.6 573.2 -332.49 573.2 C-346.39 573.2 -360.29 573.21 -374.19 573.23 C-388.18 573.24 -402.16 573.24 -416.15 573.24 C-424.45 573.23 -432.74 573.23 -441.04 573.25 C-447.25 573.26 -453.47 573.26 -459.68 573.25 C-462.18 573.24 -464.68 573.25 -467.18 573.26 C-486.08 573.32 -504.68 572.16 -523.06 567.44 C-523.93 567.22 -524.81 567 -525.7 566.78 C-561.85 557.59 -592 538.2 -618.94 512.88 C-619.89 512 -619.89 512 -620.87 511.11 C-626.95 505.35 -631.91 498.55 -636.94 491.88 C-637.69 490.88 -638.45 489.88 -639.22 488.85 C-668.79 447.96 -681.8 395.4 -674.28 345.48 C-668.27 308.83 -653.38 274.04 -628.94 245.88 C-628.23 245.06 -627.52 244.24 -626.8 243.4 C-612.61 227.33 -597.11 214.23 -578.94 202.88 C-578.33 202.5 -577.73 202.12 -577.1 201.73 C-554.6 187.86 -528.97 179.02 -502.94 174.88 C-502.87 174.25 -502.81 173.63 -502.75 172.99 C-501.31 162.18 -497.61 152.1 -493.94 141.88 C-493.7 141.21 -493.46 140.55 -493.22 139.86 C-479.58 102.31 -457.91 67.67 -431.06 38.21 C-429.13 36.09 -427.25 33.93 -425.38 31.75 C-419.4 24.9 -412.86 18.75 -405.94 12.88 C-404.65 11.77 -404.65 11.77 -403.33 10.64 C-382.06 -7.39 -359 -22.51 -333.88 -34.62 C-333.21 -34.95 -332.54 -35.28 -331.86 -35.61 C-321.27 -40.58 -311.45 -41.15 -300.31 -37.44 C-289.14 -33 -280.85 -25.91 -275.66 -14.98 C-273.94 -10.57 -273.81 -6.62 -273.8 -1.87 C-273.79 -0.77 -273.79 -0.77 -273.79 0.35 C-273.78 2.8 -273.78 5.26 -273.78 7.71 C-273.77 9.47 -273.77 11.23 -273.76 12.99 C-273.75 17.77 -273.74 22.55 -273.74 27.33 C-273.73 30.32 -273.73 33.31 -273.73 36.3 C-273.71 45.65 -273.7 55 -273.7 64.36 C-273.69 75.15 -273.68 85.94 -273.65 96.73 C-273.63 105.08 -273.62 113.42 -273.61 121.76 C-273.61 126.75 -273.61 131.73 -273.59 136.71 C-273.57 141.4 -273.57 146.09 -273.58 150.78 C-273.58 152.49 -273.58 154.21 -273.57 155.93 C-273.46 175.23 -273.46 175.23 -278.99 182.62 C-287.06 190.23 -293.02 192.98 -304.14 193.03 C-304.85 193.04 -305.55 193.04 -306.28 193.05 C-307.81 193.06 -309.34 193.07 -310.86 193.07 C-313.29 193.09 -315.72 193.11 -318.15 193.13 C-325.04 193.19 -331.94 193.24 -338.84 193.28 C-343.07 193.3 -347.3 193.33 -351.52 193.38 C-353.12 193.39 -354.73 193.4 -356.33 193.4 C-367.71 193.43 -380.08 193.64 -388.94 201.88 C-392.52 206.86 -394.85 212.21 -394.4 218.41 C-392.27 229.68 -386.6 237.57 -379.41 246.1 C-377 249 -374.69 251.97 -372.38 254.94 C-371.69 255.81 -371.69 255.81 -370.99 256.7 C-367.98 260.53 -365.02 264.38 -362.06 268.25 C-358.33 273.14 -354.47 277.93 -350.56 282.69 C-346.22 287.99 -342.02 293.37 -337.94 298.88 C-333.41 304.99 -328.69 310.92 -323.86 316.8 C-319.95 321.58 -316.17 326.45 -312.44 331.38 C-307.62 337.73 -302.66 343.96 -297.61 350.13 C-293.43 355.24 -289.39 360.44 -285.38 365.68 C-282.85 369 -280.27 372.28 -277.69 375.56 C-273.42 380.98 -269.17 386.42 -264.94 391.88 C-256.23 403.08 -247.49 414.26 -238.5 425.25 C-235.63 428.76 -232.84 432.3 -230.12 435.94 C-223.43 444.57 -214.39 451.63 -203.44 453.59 C-189.44 455.19 -177.61 452.88 -166.41 444.05 C-158.54 437.13 -152.53 428.53 -146.23 420.21 C-143.32 416.36 -140.36 412.55 -137.38 408.75 C-136.93 408.18 -136.49 407.62 -136.03 407.04 C-133.22 403.48 -130.4 399.95 -127.56 396.43 C-122.77 390.47 -118.06 384.46 -113.44 378.38 C-107.4 370.43 -101.2 362.64 -94.94 354.88 C-90.19 348.98 -85.52 343.04 -80.92 337.03 C-77.71 332.85 -74.43 328.73 -71.12 324.62 C-66.81 319.27 -62.6 313.85 -58.44 308.38 C-53.34 301.67 -48.12 295.06 -42.84 288.49 C-38.61 283.23 -34.46 277.92 -30.3 272.61 C-28.47 270.28 -26.64 267.95 -24.81 265.63 C-23.9 264.46 -22.98 263.3 -22.07 262.13 C-19.74 259.16 -17.4 256.19 -15.05 253.23 C0.76 233.94 0.76 233.94 4.06 209.88 C1.99 203.09 -1.83 199.62 -7.94 196.19 C-13.09 193.93 -17.72 193.75 -23.32 193.73 C-24.05 193.73 -24.77 193.73 -25.52 193.72 C-27.09 193.72 -28.66 193.71 -30.24 193.71 C-32.73 193.7 -35.22 193.68 -37.72 193.66 C-44.81 193.61 -51.9 193.56 -58.99 193.55 C-63.33 193.54 -67.67 193.51 -72.02 193.47 C-73.66 193.46 -75.31 193.45 -76.96 193.45 C-88.43 193.46 -98.38 192.79 -107.31 184.75 C-108.5 183.73 -108.5 183.73 -109.71 182.68 C-116.9 173.62 -116.51 163.41 -116.46 152.41 C-116.46 150.65 -116.47 148.9 -116.48 147.14 C-116.49 142.4 -116.49 137.65 -116.47 132.91 C-116.46 127.93 -116.47 122.95 -116.48 117.97 C-116.49 109.6 -116.48 101.24 -116.46 92.88 C-116.44 83.23 -116.44 73.58 -116.47 63.94 C-116.48 55.63 -116.49 47.33 -116.48 39.02 C-116.47 34.07 -116.47 29.12 -116.48 24.17 C-116.49 19.52 -116.49 14.86 -116.46 10.2 C-116.46 8.5 -116.46 6.8 -116.47 5.1 C-116.53 -8.59 -114.59 -20.99 -105.94 -32.12 C-76.43 -60.03 -24.57 -18.82 0 0 Z " fill="#FDFDFD" transform="translate(834.9375,346.125)"/>
<path d="M0 0 C2 1 2 1 2 1 Z " fill="#000000" transform="translate(711,1276)"/>
<path d="M0 0 C2 1 2 1 2 1 Z " fill="#000000" transform="translate(567,1276)"/>
<path d="" fill="#000000" transform="translate(0,0)"/>
<path d="" fill="#000000" transform="translate(0,0)"/>
<path d="" fill="#000000" transform="translate(0,0)"/>
<path d="" fill="#000000" transform="translate(0,0)"/>
</svg>
