<svg id="Layer_1" data-name="Layer 1" xmlns="http://www.w3.org/2000/svg" viewBox="0 0 321.67 253.88"><defs><style>.cls-1,.cls-2{fill:#c2dbe9;fill-rule:evenodd;}.cls-2{opacity:0.9;}</style></defs><path class="cls-1" d="M147.86,131.47V114H120a8.47,8.47,0,0,0-8.45,8.45v45.35a8.47,8.47,0,0,0,8.45,8.45h45.35a8.47,8.47,0,0,0,8.44-8.45V139.92h-17.5A8.48,8.48,0,0,1,147.86,131.47Z"/><path class="cls-2" d="M201.66,77.67H156.31a8.47,8.47,0,0,0-8.45,8.45V114h17.51a8.47,8.47,0,0,1,8.44,8.45v17.51h27.85a8.48,8.48,0,0,0,8.44-8.45V86.12A8.47,8.47,0,0,0,201.66,77.67Z"/></svg>