<?xml version="1.0" standalone="no"?>
<!DOCTYPE svg PUBLIC "-//W3C//DTD SVG 20010904//EN"
 "http://www.w3.org/TR/2001/REC-SVG-20010904/DTD/svg10.dtd">
<svg version="1.0" xmlns="http://www.w3.org/2000/svg"
 width="8001.000000pt" height="5716.000000pt" viewBox="0 0 8001.000000 5716.000000"
 preserveAspectRatio="xMidYMid meet">

<g transform="translate(0.000000,5716.000000) scale(0.100000,-0.100000)"
fill="#000000" stroke="none">
<path d="M50495 40815 c-70 -15 -145 -44 -145 -55 0 -4 14 -13 30 -20 48 -20
45 -30 -9 -30 -44 0 -51 3 -51 20 0 18 -4 17 -47 -10 -26 -17 -71 -39 -101
-50 -72 -27 -161 -89 -211 -147 -50 -57 -105 -168 -120 -241 -8 -36 -11 -350
-11 -995 l0 -943 88 -51 87 -51 5 1006 5 1007 28 57 c38 77 107 144 187 182
58 28 75 31 156 31 86 0 94 -2 175 -42 46 -23 148 -81 226 -127 78 -47 168
-99 200 -117 32 -18 553 -318 1157 -666 605 -349 1106 -638 1115 -641 9 -3 18
-8 21 -12 3 -3 31 -21 62 -38 l56 -33 38 26 37 25 -42 0 c-48 0 -47 7 2 34
l35 18 166 -93 165 -94 1 -75 0 -75 263 -151 264 -151 72 42 c39 23 76 46 82
52 7 7 -32 35 -128 90 -76 44 -232 136 -348 203 -275 161 -687 400 -1060 617
-165 95 -301 177 -303 182 -3 9 76 81 90 81 19 0 6 17 -27 34 l-36 20 -49 -49
c-46 -45 -51 -48 -75 -37 l-26 12 23 29 c13 16 35 36 51 45 15 10 27 20 27 24
0 4 -186 114 -414 245 -227 131 -418 243 -425 250 -6 6 -11 28 -11 48 0 36 -3
39 -77 82 l-78 45 -5 -38 -5 -38 -242 141 -243 140 0 41 c0 40 -1 42 -73 82
l-72 42 -5 -38 -5 -38 -180 104 c-106 61 -190 104 -205 103 -14 0 -52 -7 -85
-14z m2865 -1809 c0 -2 -7 -7 -16 -10 -8 -3 -12 -2 -9 4 6 10 25 14 25 6z m24
-48 c-16 -29 -38 -48 -56 -48 -28 0 -21 13 20 36 46 27 45 27 36 12z"/>
<path d="M52770 39555 c-8 -9 -8 -15 -2 -15 12 0 26 19 19 26 -2 2 -10 -2 -17
-11z"/>
<path d="M62140 38874 c-25 -2 -116 -9 -202 -15 l-157 -12 -3 -108 -3 -108
-157 88 c-101 56 -166 87 -180 85 -13 -2 -90 -15 -171 -29 -81 -14 -151 -25
-155 -25 -4 0 -15 13 -25 29 -15 26 -20 28 -52 21 -32 -7 -37 -5 -52 21 -17
29 -32 34 -66 20 -14 -5 420 -253 1662 -951 l1681 -945 0 -118 c0 -100 -2
-118 -14 -114 -8 3 -864 483 -1902 1066 -1038 584 -1889 1061 -1891 1061 -1 0
-3 -54 -3 -120 0 -66 -3 -120 -6 -120 -3 0 -91 48 -195 106 -105 59 -192 104
-195 101 -6 -5 57 -41 699 -401 l387 -218 0 -119 c0 -65 -2 -119 -4 -119 -2 0
-325 180 -717 401 l-713 401 -88 -35 -89 -35 -41 54 c-40 54 -66 68 -34 19
l17 -26 -48 -21 c-26 -11 -86 -38 -132 -59 -46 -22 -89 -39 -95 -39 -6 0 -18
11 -26 24 l-15 25 -74 -35 c-41 -19 -77 -37 -80 -39 -2 -3 3 -13 12 -23 25
-27 21 -36 -20 -56 l-37 -18 -21 29 c-51 71 -59 77 -86 63 -35 -18 -35 -18
-11 -43 l22 -24 -34 -18 c-35 -19 -35 -19 -59 3 -28 26 -36 27 -65 7 l-22 -16
41 -52 c26 -33 37 -53 29 -55 -7 -3 -21 5 -30 18 -13 17 -22 21 -40 15 -20 -6
-31 0 -65 37 -22 24 -34 36 -27 28 18 -24 15 -35 -14 -49 l-27 -12 23 -24 c13
-14 22 -26 19 -28 -2 -2 -17 -11 -32 -21 -27 -16 -27 -19 -13 -35 23 -25 20
-38 -11 -55 -25 -13 -28 -12 -46 11 -19 23 -19 24 -1 38 11 8 22 15 27 15 14
0 7 27 -12 44 -18 16 -21 16 -72 -15 -30 -18 -56 -34 -58 -36 -3 -2 6 -15 20
-31 l24 -27 -26 23 c-43 38 -73 23 -39 -21 21 -26 16 -36 -22 -50 -10 -4 -18
-10 -18 -15 0 -5 788 -451 1750 -992 l1750 -983 0 -119 0 -119 -22 12 c-112
60 -702 390 -2043 1144 -1255 705 -1582 885 -1595 877 -13 -8 -20 -4 -34 19
l-17 29 -30 -21 c-29 -20 -29 -22 -14 -45 8 -13 15 -25 15 -28 0 -3 -21 -19
-47 -37 l-46 -32 -21 26 -21 26 -30 -23 c-17 -13 -27 -27 -24 -30 5 -5 692
-392 5264 -2963 l1990 -1119 3 -117 c1 -64 0 -117 -3 -117 -2 0 -895 500
-1982 1111 -1088 612 -2000 1124 -2028 1139 -27 15 -77 42 -110 61 -33 18
-779 437 -1659 931 -879 494 -1601 898 -1604 898 -3 0 5 -11 17 -24 21 -22 21
-24 4 -30 -12 -5 -24 0 -35 14 -10 12 -18 19 -18 14 0 -4 8 -16 17 -26 15 -17
15 -19 0 -31 -9 -6 -47 -37 -86 -67 l-69 -55 19 -26 c18 -26 18 -26 -7 -50
l-26 -24 -22 28 c-20 24 -24 26 -35 13 -10 -12 -9 -20 5 -41 23 -35 11 -43
-15 -9 -11 15 -21 21 -21 14 0 -8 8 -22 17 -33 17 -18 17 -20 -10 -39 l-27
-20 20 -25 20 -26 -21 -24 c-21 -22 -22 -24 -5 -42 10 -11 16 -26 14 -33 -3
-7 -21 10 -43 40 -22 29 -42 52 -46 52 -3 0 -14 -9 -24 -20 -17 -19 -16 -21
19 -71 38 -52 43 -82 7 -38 -19 23 -21 23 -37 7 -17 -17 -17 -18 1 -38 15 -16
17 -25 8 -38 -8 -14 -6 -23 8 -41 21 -25 18 -41 -3 -23 -7 5 -31 20 -53 32
-22 12 -495 285 -1052 606 -556 321 -1018 586 -1025 589 -11 4 -13 -678 -13
-3919 0 -2158 -3 -3927 -7 -3931 -6 -6 -109 49 -328 175 -36 21 -1120 640
-2410 1377 -1290 737 -2374 1356 -2410 1377 -36 20 -87 51 -115 68 -27 17 -86
50 -130 73 -105 57 -1176 670 -3030 1735 -280 161 -690 396 -910 522 -220 126
-401 231 -403 233 -2 2 6 17 18 33 13 17 80 64 156 108 113 65 155 98 142 109
-2 2 -284 165 -628 364 -344 199 -794 459 -1000 579 l-375 217 -3 134 c-2 108
0 132 11 128 7 -3 130 -72 273 -154 142 -82 360 -207 484 -278 124 -72 500
-288 835 -481 597 -345 611 -352 635 -337 14 9 63 55 110 104 l85 88 -615 354
c-679 392 -733 422 -1665 944 -476 267 -654 362 -667 356 -21 -10 -3216 -1997
-3214 -1999 0 -1 156 -39 346 -84 342 -81 1289 -317 1385 -345 28 -8 205 -56
395 -106 574 -151 1520 -418 2065 -582 44 -14 82 -21 85 -18 6 8 153 102 187
119 22 12 53 7 53 -9 0 -4 -30 -26 -67 -48 -98 -58 -126 -78 -116 -84 4 -2 99
-32 209 -66 111 -33 209 -63 217 -67 12 -4 22 6 39 40 12 25 25 46 29 46 4 0
101 -54 216 -120 198 -115 217 -123 398 -181 382 -122 1051 -345 1469 -490
236 -82 430 -148 432 -147 1 2 -216 129 -483 283 -266 154 -645 373 -841 487
-196 114 -484 281 -639 370 l-282 163 -1 58 c0 45 6 66 26 99 l27 42 -27 -17
-26 -17 0 29 c0 66 15 60 360 -139 179 -103 485 -279 680 -391 195 -111 573
-328 838 -482 266 -153 495 -283 508 -289 23 -11 24 -14 24 -135 0 -67 2 -123
3 -123 24 0 1302 -477 1812 -677 203 -80 382 -149 398 -155 19 -7 27 -17 27
-34 0 -13 -3 -24 -6 -24 -4 0 -149 56 -323 124 -837 329 -1791 681 -2666 982
-460 159 -1267 425 -1272 420 -3 -2 485 -287 662 -386 22 -12 245 -140 495
-284 250 -145 548 -316 663 -381 l207 -119 0 -139 0 -139 -32 20 c-18 11 -132
77 -253 147 -121 71 -431 251 -690 400 -258 150 -634 368 -835 485 -201 117
-501 291 -667 387 l-302 175 15 30 c9 16 14 31 12 33 -2 1 -113 37 -248 78
-1288 397 -2844 819 -4264 1156 l-299 71 -5786 -3599 -5786 -3599 -3 -625 -2
-625 337 -200 c186 -110 2949 -1740 6141 -3622 3191 -1882 5802 -3425 5802
-3429 0 -3 -877 -523 -1950 -1156 -1563 -922 -3626 -2140 -3699 -2184 -10 -6
41 -65 189 -222 111 -118 295 -329 410 -469 114 -140 314 -385 444 -544 228
-280 237 -290 308 -329 146 -80 555 -310 633 -357 126 -74 404 -230 410 -230
7 0 149 -83 480 -280 99 -59 251 -148 337 -197 l157 -91 393 -96 c362 -89 441
-104 1003 -196 336 -55 637 -107 670 -115 33 -8 267 -55 521 -104 l461 -89
804 23 c442 13 890 28 994 34 149 7 1137 89 1390 115 73 7 1876 307 2000 333
54 11 89 24 106 40 33 30 70 40 176 49 85 7 89 9 125 55 9 12 159 51 493 129
264 62 773 182 1130 267 358 85 718 171 800 191 83 19 182 50 220 68 39 17
111 51 160 74 50 23 191 80 315 127 124 47 306 116 405 153 309 117 827 313
1135 430 162 62 307 116 322 120 15 5 285 138 600 296 548 276 583 295 796
439 233 156 568 365 589 365 6 0 24 -8 41 -17 28 -16 30 -16 92 22 62 38 64
38 92 22 40 -23 42 -22 109 18 56 35 59 35 88 20 41 -21 48 -20 114 20 l58 35
36 -18 36 -19 65 38 65 38 71 -36 71 -36 43 23 c23 13 39 27 35 31 -4 4 -145
87 -313 184 -824 478 -1092 634 -1535 890 -264 152 -527 305 -585 340 -58 34
-314 183 -570 330 -256 147 -466 268 -466 269 -1 0 1 8 5 18 5 13 106 -41 551
-298 300 -173 556 -320 570 -328 32 -17 933 -535 1020 -586 36 -21 214 -123
395 -227 182 -104 488 -280 680 -391 193 -110 358 -204 367 -207 11 -4 40 7
78 31 l60 37 39 -18 39 -17 62 43 61 42 35 -16 c38 -19 31 -22 139 57 8 6 27
4 51 -5 l39 -15 59 42 58 43 39 -15 c35 -15 40 -14 63 3 14 10 26 20 26 23 0
4 -16 12 -36 19 l-36 13 34 23 c30 21 36 21 60 9 38 -20 43 -19 109 28 l60 41
35 -16 c34 -17 36 -17 66 4 27 19 35 21 62 11 47 -17 52 -16 112 29 l54 42 74
-33 75 -32 63 45 63 45 38 -15 c37 -15 40 -15 69 7 29 21 32 21 69 7 l39 -15
62 45 c60 45 61 45 100 32 33 -11 43 -10 61 1 126 79 113 75 159 57 39 -16 43
-16 75 4 30 19 38 20 82 8 45 -11 51 -10 87 11 22 13 49 32 61 43 14 13 30 18
45 14 82 -21 72 -24 171 59 50 43 101 87 111 96 23 21 29 21 76 4 32 -12 38
-11 67 12 29 21 36 23 64 13 47 -16 65 -14 95 13 l28 23 84 -28 c46 -16 87
-29 90 -29 4 0 20 11 37 24 l30 24 -43 12 c-23 7 -42 16 -42 19 0 3 12 14 26
24 24 18 63 18 107 1 7 -2 40 19 74 46 61 51 62 51 103 40 46 -13 70 -8 94 19
16 17 21 18 69 5 50 -13 52 -13 77 11 32 30 49 31 130 5 81 -26 99 -25 133 4
l28 25 -41 8 c-48 9 -52 21 -17 47 23 17 31 17 73 7 29 -7 51 -8 56 -3 9 9
-62 52 -505 307 -65 37 -120 71 -122 76 -3 4 8 10 24 14 26 5 72 -18 338 -172
210 -122 325 -182 361 -191 50 -11 55 -11 92 14 38 25 43 26 92 15 29 -6 79
-16 110 -23 l57 -11 68 54 c127 102 126 102 194 94 57 -7 62 -6 90 21 l29 28
111 -18 111 -18 24 23 c29 27 23 39 -21 39 -44 0 -50 12 -20 40 22 20 31 22
81 16 53 -6 59 -5 85 20 l29 27 115 -13 115 -13 30 28 c27 26 33 27 85 22 l57
-6 97 89 98 88 59 -5 c56 -5 61 -3 88 26 28 29 32 30 88 24 l59 -6 64 63 63
63 61 -5 c58 -4 62 -3 92 28 29 30 34 32 87 27 54 -5 59 -3 86 26 27 28 35 31
95 31 58 1 70 4 101 30 31 27 41 30 102 30 64 0 70 2 107 36 37 33 44 35 96
32 l56 -3 -93 -65 c-110 -77 -257 -219 -320 -310 -63 -89 -113 -191 -140 -286
-31 -112 -31 -286 0 -398 46 -161 130 -296 271 -436 300 -297 782 -505 1366
-589 799 -116 1642 40 2185 404 513 343 665 822 398 1253 -67 108 -229 273
-358 364 -117 83 -345 201 -505 261 -570 214 -1299 262 -1945 128 -52 -11 -96
-18 -98 -16 -2 1 8 14 22 28 20 20 38 26 99 31 67 7 78 11 108 42 18 18 31 35
28 37 -2 2 -123 73 -269 157 -146 84 -456 264 -690 400 -234 135 -688 398
-1010 584 -322 186 -632 366 -690 401 -257 153 -944 545 -955 545 -3 0 -19
-10 -36 -22 -42 -32 -123 -31 -168 1 -36 26 -61 74 -61 118 0 26 -15 37 -193
139 -105 61 -768 443 -1472 848 -704 406 -1281 739 -1284 741 -2 3 3 7 11 10
10 4 138 -64 324 -171 170 -97 329 -188 354 -202 25 -14 319 -182 653 -374
484 -279 611 -347 622 -338 11 9 100 -38 437 -233 233 -134 457 -262 498 -284
l75 -40 34 23 c57 40 142 32 197 -18 21 -19 22 -18 260 120 131 76 332 191
447 255 114 65 207 123 207 128 0 6 -9 24 -20 39 -34 48 -89 171 -106 240 -26
103 -16 261 24 368 133 357 572 657 1152 786 536 119 1108 93 1613 -74 689
-229 1052 -695 894 -1149 -71 -204 -269 -415 -525 -559 -684 -386 -1766 -412
-2492 -61 -169 82 -306 175 -422 287 l-97 94 -123 -72 c-68 -40 -269 -157
-448 -261 l-325 -188 -5 -55 -5 -55 185 -109 c102 -61 320 -187 485 -282 165
-95 329 -189 365 -210 132 -76 1278 -735 1680 -966 228 -131 539 -309 690
-396 259 -150 277 -159 315 -153 27 4 52 17 76 41 31 31 46 37 110 45 66 9 79
15 114 49 36 34 48 39 120 49 73 11 83 15 120 51 36 35 48 41 117 51 71 10 80
14 117 54 36 39 45 43 117 55 70 11 82 16 111 48 l33 36 0 -28 c0 -27 2 -28
31 -22 17 3 38 6 46 6 7 0 36 21 63 46 43 40 60 49 130 65 l81 19 85 89 c85
89 85 90 162 107 69 17 82 23 122 66 39 42 55 51 130 73 46 13 89 30 95 38 47
63 65 76 150 103 76 25 93 35 130 77 37 40 56 52 135 79 81 28 95 37 135 83
39 46 55 56 135 85 89 32 106 44 177 126 10 12 45 32 78 44 79 31 155 69 155
78 0 16 87 99 118 111 l32 14 -235 136 c-130 75 -248 143 -263 152 -60 35
-686 399 -1162 674 -388 224 -505 296 -505 311 0 10 5 18 10 17 6 -1 152 -83
325 -183 456 -264 1183 -682 1340 -770 74 -42 226 -129 338 -194 195 -113 204
-117 236 -106 33 11 56 32 107 100 18 24 57 50 125 84 88 43 104 55 141 107
23 32 56 65 73 74 l31 16 -6 -63 c-4 -35 -8 -69 -11 -76 -9 -30 22 -2 59 51
33 49 51 63 142 112 57 31 118 68 136 82 30 26 31 27 11 42 -11 9 -149 129
-307 266 -628 547 -1245 1060 -1905 1584 -168 133 -330 262 -360 287 -30 24
-59 48 -65 52 -5 4 -59 46 -120 92 -60 46 -137 106 -170 132 -33 27 -64 52
-70 56 -5 4 -95 73 -200 153 -542 415 -1477 1102 -1825 1341 -236 161 -696
482 -705 491 -39 38 347 -194 487 -292 1528 -1073 3112 -2292 4463 -3434 149
-125 290 -245 314 -265 61 -51 328 -280 425 -366 l80 -69 25 29 c14 16 81 62
148 102 109 65 127 80 172 143 56 76 54 76 -58 5 -161 -103 -160 -103 -85 -6
31 42 71 74 163 133 67 42 123 77 126 77 2 0 -2 -19 -10 -41 -8 -23 -15 -43
-15 -45 0 -3 47 27 105 66 88 59 114 83 165 152 49 66 84 99 175 165 110 81
135 108 183 204 7 14 72 73 143 130 120 96 137 113 210 221 43 64 79 121 79
125 0 5 -141 88 -312 185 -172 96 -477 267 -678 380 -744 419 -1254 706 -1575
886 -181 101 -334 188 -338 192 -5 4 9 18 30 31 154 93 497 346 717 530 154
128 158 132 135 145 -13 7 -267 152 -563 323 l-540 311 -53 -30 c-29 -17 -57
-30 -63 -30 -5 0 -11 49 -12 117 l-3 118 -93 50 c-57 31 -91 55 -90 64 2 8 47
38 100 68 l97 54 100 -57 101 -58 0 -127 c0 -125 -1 -129 -24 -141 -22 -12 9
-32 529 -330 304 -175 557 -318 562 -318 18 0 413 392 561 555 447 494 831
1054 1122 1636 81 160 192 401 187 405 -1 2 -164 23 -362 49 -198 25 -400 52
-450 60 -49 8 -261 40 -470 70 -1369 202 -2844 491 -4249 834 -159 39 -290 71
-292 71 -6 0 -5 -286 3 -506 l6 -202 34 -16 c46 -22 73 -70 73 -129 0 -61 -22
-99 -72 -127 l-38 -21 0 -207 0 -208 248 -142 c511 -294 587 -341 590 -357 2
-10 0 -15 -5 -13 -27 15 -344 196 -555 317 -136 78 -255 144 -263 147 -13 5
-15 -96 -15 -900 l0 -906 -24 0 -24 0 -5 333 c-5 337 -6 360 -22 374 -4 5 -5
2 0 -6 6 -11 4 -13 -11 -7 -10 5 -34 12 -51 17 -18 6 -36 15 -40 22 -10 16
-76 57 -92 57 -19 0 -12 -16 14 -30 14 -7 24 -15 22 -17 -5 -4 -189 88 -216
108 -13 11 -27 16 -32 13 -5 -2 -21 2 -36 10 -16 8 -21 15 -13 16 8 0 -7 14
-35 30 -34 20 -44 30 -30 30 18 1 17 2 -5 14 -14 8 -28 12 -32 10 -4 -3 -34 8
-67 25 -33 16 -61 25 -63 20 -2 -6 -25 2 -52 17 -27 15 -56 28 -65 29 -9 0
-40 14 -69 30 -43 23 -50 30 -35 36 15 5 13 9 -16 23 -25 13 -36 15 -41 6 -9
-15 -100 26 -97 43 1 7 -5 12 -13 12 -9 0 -26 11 -38 23 -13 13 -26 20 -31 18
-11 -7 -161 71 -153 79 4 4 3 5 -3 4 -14 -4 -55 11 -55 20 0 4 -6 8 -12 8 -7
1 -155 80 -328 178 -173 97 -348 195 -387 216 l-73 39 0 -265 c0 -167 -4 -265
-10 -265 -6 0 -11 102 -12 272 l-3 272 -190 106 c-104 58 -259 144 -342 190
l-153 84 0 76 c0 41 -4 69 -8 63 -6 -10 -12 -10 -28 2 -10 8 -26 15 -35 15 -9
0 -22 7 -29 15 -7 8 -19 15 -26 15 -8 0 -32 12 -54 26 l-39 26 -3 96 c-3 102
-2 99 -65 122 -20 7 -30 17 -26 24 3 6 3 8 -2 4 -4 -4 -21 0 -37 8 -16 8 -32
12 -37 10 -9 -6 -21 40 -21 80 0 13 -4 25 -10 25 -20 3 -54 16 -118 47 -17 8
-35 12 -38 9 -4 -3 -19 0 -35 8 -32 17 -53 19 -44 5 10 -17 -16 -11 -52 11
-20 12 -48 22 -64 21 -16 0 -31 4 -34 9 -4 5 -12 9 -19 9 -7 0 -45 18 -84 39
-39 21 -73 37 -76 34 -2 -2 -15 2 -28 11 -14 9 -36 17 -51 18 -15 1 -27 5 -27
9 0 8 -61 24 -108 28 -7 1 -10 6 -7 11 5 9 1 11 -20 10 -3 0 -20 7 -38 15
l-32 16 25 -21 c23 -20 -118 50 -148 73 -7 5 -15 8 -18 5 -3 -3 16 -18 41 -32
25 -15 45 -29 45 -32 0 -3 -16 4 -37 16 -20 11 -53 27 -75 34 l-38 14 0 -279
c0 -179 -4 -279 -10 -279 -6 0 -10 103 -10 289 l0 288 -47 18 c-27 10 -50 18
-53 18 -3 -1 -21 7 -41 18 -20 10 -39 16 -42 13 -3 -3 -17 2 -32 12 -21 14
-28 15 -35 4 -6 -9 -9 -8 -14 7 -7 22 -75 70 -112 79 -13 3 -27 11 -30 16 -4
6 -10 5 -15 -3 -7 -11 -15 -8 -35 15 -14 15 -28 26 -31 23 -6 -7 -63 20 -63
29 0 3 6 2 13 -1 6 -4 4 0 -6 9 -11 8 -27 13 -38 11 -10 -2 -19 0 -19 4 0 7
-91 47 -98 43 -1 -1 -27 12 -57 29 -60 34 -75 34 -22 0 56 -36 13 -23 -53 16
-34 21 -66 47 -70 59 -10 27 -46 40 -64 25 -10 -9 -33 -2 -91 28 -43 21 -84
37 -92 34 -7 -3 -13 -1 -13 5 0 6 -13 15 -30 21 -16 5 -30 17 -30 25 0 8 -4
18 -10 21 -6 4 -7 -1 -3 -11 5 -14 3 -16 -13 -9 -10 4 -26 8 -35 9 -9 1 -70
30 -136 63 -67 34 -123 59 -126 57 -3 -3 -23 6 -46 20 -22 14 -44 26 -49 26
-4 0 -24 12 -43 26 -20 15 -43 24 -56 21 -15 -3 -23 1 -23 9 0 8 -4 14 -10 14
-5 0 -12 0 -15 0 -2 0 -20 16 -39 35 -19 19 -47 37 -63 40 -47 11 -54 14 -48
24 3 6 -3 9 -12 9 -10 -1 -64 24 -120 55 l-103 55 0 -154 0 -154 -24 0 c-20 0
-24 6 -30 46 -3 26 -6 100 -6 165 0 108 -2 119 -20 129 -11 6 -20 20 -20 31 0
11 -10 23 -24 29 -13 5 -27 14 -31 20 -3 5 -10 8 -15 5 -5 -3 -11 -1 -15 5 -3
5 -17 10 -31 10 -21 0 -24 -4 -24 -36 0 -30 -2 -34 -14 -25 -11 9 -15 9 -18 0
-7 -22 -27 1 -33 39 -11 63 -21 77 -83 109 -50 26 -62 30 -72 18 -7 -9 -8 -15
0 -20 5 -3 10 -11 10 -17 0 -7 -5 -6 -14 1 -12 10 -12 6 -1 -33 8 -26 11 -46
7 -46 -8 0 -62 66 -62 75 0 4 -9 14 -20 23 -20 17 -20 24 -18 1477 2 808 7
1451 11 1440 5 -11 11 -27 15 -35 4 -12 6 -12 9 3 3 9 9 17 14 17 6 0 8 -8 4
-19 -3 -10 1 -23 9 -30 8 -7 12 -19 9 -27 -3 -8 -2 -21 1 -30 5 -13 9 -14 21
-4 17 14 36 5 29 -14 -3 -7 11 -25 31 -40 26 -20 35 -35 35 -56 0 -22 7 -33
29 -44 28 -15 29 -15 35 10 9 34 29 19 22 -17 -5 -24 -1 -31 24 -44 24 -12 30
-22 30 -48 0 -26 6 -36 30 -50 17 -10 30 -26 31 -35 0 -10 3 -12 6 -5 10 26
43 -6 43 -41 0 -21 6 -36 15 -40 9 -3 22 -20 29 -38 14 -32 14 -32 21 42 4 41
5 315 3 609 -2 420 -6 535 -16 539 -7 2 -19 10 -27 19 -8 8 -15 11 -15 7 0 -4
-13 4 -28 19 -22 21 -31 24 -40 15 -9 -9 -12 -9 -13 3 -1 7 -2 23 -3 34 -1 11
-3 34 -4 50 -2 24 -4 27 -13 15 -7 -11 -8 -6 -4 20 9 45 33 96 53 112 13 11
15 10 10 -10 -6 -22 -6 -22 24 3 16 14 35 25 43 25 7 0 16 8 20 18 4 9 10 157
13 328 5 309 -2 509 -18 499 -5 -3 -19 28 -33 67 -14 40 -66 191 -116 336 -49
144 -89 262 -87 262 2 0 93 -51 202 -114 223 -127 229 -134 174 -191 -31 -32
-32 -37 -37 -136 -3 -63 -11 -113 -19 -126 -11 -18 -14 -108 -14 -489 l0 -466
23 -19 c12 -10 26 -18 31 -19 5 0 15 -8 23 -17 14 -17 14 -17 9 0 -4 11 -2 16
5 12 6 -4 8 -13 5 -20 -3 -8 -1 -28 4 -44 11 -39 -5 -96 -34 -126 l-22 -22 42
-111 c153 -405 539 -1187 700 -1420 1 -2 40 27 85 64 448 362 841 421 1163
174 63 -49 67 -50 90 -35 15 10 26 29 30 53 3 20 6 247 6 503 0 536 10 1069
20 1069 12 0 20 -296 27 -967 l6 -642 27 -6 c15 -3 42 -21 60 -40 27 -28 34
-44 38 -87 3 -45 0 -59 -23 -92 -14 -21 -25 -41 -23 -45 2 -3 29 -51 60 -107
68 -118 144 -284 204 -444 23 -63 46 -114 51 -112 4 2 51 51 103 110 234 261
412 338 610 263 172 -66 315 -240 633 -771 81 -135 150 -250 154 -257 7 -9
214 -53 253 -53 7 0 10 214 10 683 0 720 8 1237 20 1237 12 0 22 -456 29
-1220 l6 -714 144 -25 143 -24 62 22 c118 41 212 24 364 -68 67 -40 68 -41
357 -85 323 -50 988 -144 1050 -148 l40 -3 3 498 c2 431 4 497 17 497 13 0 15
-66 17 -502 l3 -503 135 -18 c1224 -158 2777 -293 3990 -347 129 -5 273 -12
320 -15 130 -8 1434 -35 1701 -35 l235 0 12 133 c33 361 42 817 22 1132 -87
1353 -513 2609 -1261 3715 -65 96 -129 188 -143 205 l-24 29 -7 -337 -7 -338
-62 95 c-61 95 -61 96 -101 96 -40 0 -42 2 -103 90 l-63 90 40 -6 c23 -4 41
-3 41 0 0 7 -79 114 -105 142 -5 7 -64 80 -130 163 l-119 151 -42 0 c-40 0
-44 3 -151 123 -61 67 -200 210 -310 318 l-200 196 211 -122 c205 -118 545
-312 616 -352 185 -105 420 -238 439 -250 41 -26 -186 260 -374 472 l-98 110
-216 126 c-119 69 -283 166 -366 214 -82 48 -332 194 -555 322 -223 129 -406
236 -407 237 -1 1 -5 88 -9 193 l-7 190 -114 68 c-62 37 -170 98 -240 136
l-126 68 -36 -19 c-34 -17 -38 -17 -71 -1 -29 14 -41 14 -70 4 -19 -6 -44 -12
-55 -12 l-20 0 20 10 c16 7 14 9 -13 6 -18 -2 -35 -1 -37 3 -2 3 -29 3 -59 0
-33 -4 -52 -2 -49 3 3 6 -5 8 -20 5 -16 -3 -24 -1 -20 5 4 6 -2 8 -15 5 -14
-4 -20 -2 -15 5 4 6 0 8 -10 4 -9 -3 -19 -1 -23 5 -5 7 -2 8 7 4 8 -4 3 2 -11
13 -14 11 -30 19 -37 16 -6 -2 -17 4 -25 13 -12 16 -11 16 7 2 20 -15 20 -15
0 10 -11 14 -20 26 -21 28 -1 1 -2 -28 -3 -65 -1 -37 -4 -69 -6 -71 -2 -2
-159 85 -349 194 l-346 198 0 73 c0 70 -1 74 -26 83 -63 24 -334 92 -377 95
-27 1 -54 8 -60 14 -6 6 -16 11 -21 11 -6 0 6 -11 26 -25 31 -21 79 -79 51
-62 -4 3 -24 8 -44 11 -20 3 -44 9 -55 13 -10 4 -2 -8 19 -26 34 -30 52 -61
26 -45 -7 4 -10 1 -7 -7 3 -8 10 -13 16 -12 6 2 9 -3 6 -11 -3 -8 0 -17 7 -22
8 -5 10 -3 4 6 -5 8 -4 11 3 6 6 -4 8 -14 5 -23 -5 -12 -3 -14 8 -8 12 8 12 6
0 -8 -7 -9 -17 -14 -22 -11 -5 3 -6 -2 -3 -10 3 -9 9 -14 14 -11 4 2 4 -13 0
-35 -4 -23 -3 -40 2 -40 11 0 -1 -74 -13 -78 -5 -2 -9 -15 -9 -28 0 -32 -32
-94 -69 -135 -26 -28 -43 -77 -46 -134 0 -5 -18 -10 -40 -10 -22 -1 -45 -4
-51 -8 -6 -3 -36 -9 -66 -13 -70 -8 -169 16 -226 56 -23 16 -53 32 -67 36 -28
7 -75 64 -53 64 7 0 4 8 -9 18 -12 9 -25 29 -28 45 -4 15 -11 27 -15 27 -4 0
-11 16 -14 35 -4 20 -11 33 -17 29 -6 -3 -7 -19 -4 -35 4 -16 2 -29 -3 -29
-19 0 -32 27 -38 83 -6 49 -10 58 -30 63 l-24 6 0 229 0 228 -32 6 c-133 23
-394 37 -758 40 -223 1 -425 1 -450 -1z m-2328 -254 c26 -16 50 -30 52 -30 9
0 341 -202 343 -208 2 -4 -17 -15 -42 -26 -45 -18 -45 -19 -30 -42 8 -13 15
-25 15 -27 0 -1 -31 -14 -70 -27 -69 -24 -70 -24 -85 -5 -22 31 -18 36 25 29
25 -4 40 -3 40 4 0 13 -42 20 -68 11 -16 -6 -24 -2 -39 21 l-18 28 -84 -34
c-46 -19 -85 -34 -86 -32 -5 6 -12 368 -7 368 3 0 27 -13 54 -30z m358 -949
l1065 -599 3 -121 c1 -67 1 -121 -1 -121 -6 0 -2121 1190 -2129 1198 -12 12
-23 242 -12 242 5 0 488 -270 1074 -599z m4378 479 c51 -29 91 -54 89 -56 -1
-2 -47 10 -100 27 -95 29 -97 31 -97 60 0 17 3 28 8 26 4 -2 49 -28 100 -57z
m-2202 -640 c411 -231 751 -423 756 -428 5 -5 7 -61 6 -125 l-3 -116 -760 428
-760 427 -3 117 c-2 73 1 117 7 117 6 0 347 -189 757 -420z m3369 -294 c45
-21 110 -76 91 -76 -5 0 -3 -6 3 -13 6 -8 8 -17 4 -20 -3 -4 -1 -7 6 -7 7 0 9
-5 5 -11 -3 -6 0 -15 7 -20 10 -6 8 -9 -9 -9 -21 0 -23 -3 -17 -30 4 -17 2
-36 -3 -43 -5 -7 -13 -31 -17 -54 -9 -57 -58 -99 -129 -109 -62 -9 -69 -8
-124 18 l-43 20 3 156 3 155 35 12 c28 10 32 14 18 20 -33 13 -18 24 40 28 31
2 62 4 67 5 6 1 33 -9 60 -22z m-1424 -799 l824 -463 3 -118 c2 -100 0 -117
-12 -114 -8 2 -384 210 -835 463 l-820 460 -1 118 c0 64 4 117 9 117 5 0 379
-208 832 -463z m-8056 -83 c143 -81 261 -148 262 -148 1 -1 -2 -20 -7 -44 -4
-25 -19 -55 -34 -71 -19 -19 -28 -43 -33 -78 -5 -43 -14 -61 -69 -126 -55 -65
-64 -82 -64 -115 0 -35 -12 -52 -125 -185 -69 -80 -125 -152 -125 -160 0 -7
45 -148 99 -313 190 -573 195 -592 177 -613 -9 -10 -16 -28 -16 -42 l1 -24 14
25 c14 24 14 24 15 -22 0 -36 -6 -53 -27 -78 -24 -29 -28 -31 -34 -14 -4 11
-8 35 -8 53 -1 57 -19 23 -26 -49 -6 -61 -5 -64 9 -40 10 17 15 20 16 9 0 -8
-11 -26 -25 -39 -29 -27 -45 -76 -45 -138 0 -38 -7 -51 -67 -122 -38 -44 -70
-80 -73 -80 -3 0 -36 91 -73 203 l-67 203 0 1098 0 1098 33 -20 c17 -11 149
-86 292 -168z m8269 -895 c50 -40 21 -119 -44 -119 -64 0 -91 70 -45 115 30
30 54 31 89 4z m-20522 -611 c14 -11 1 -22 -92 -79 -92 -56 -110 -64 -128 -55
-19 10 -11 17 86 78 59 37 110 67 113 68 3 0 12 -6 21 -12z m733 -423 c61 -34
259 -147 440 -252 182 -104 548 -315 815 -468 267 -153 738 -425 1048 -603
l562 -324 0 -135 c0 -116 -2 -134 -15 -129 -8 3 -160 89 -337 192 -705 409
-1331 772 -1683 976 -203 118 -508 295 -677 393 l-306 178 30 81 c17 45 32 90
34 101 4 17 -28 39 -191 135 -107 63 -195 118 -195 122 0 4 82 -41 183 -99
100 -58 232 -134 292 -168z m11654 -33 c1 -7 -3 -10 -9 -7 -5 3 -10 21 -9 38
1 31 1 31 9 7 4 -14 8 -31 9 -38z m18 -54 c-3 -8 -6 -5 -6 6 -1 11 2 17 5 13
3 -3 4 -12 1 -19z m-16974 2 c494 -29 920 -156 1243 -371 123 -83 259 -212
323 -307 255 -380 130 -801 -331 -1109 -58 -39 -116 -74 -127 -78 -12 -3 -21
-10 -21 -14 0 -6 747 -437 2860 -1652 1677 -963 2155 -1241 2158 -1249 2 -6
-3 -10 -11 -10 -11 0 -4522 2587 -5019 2878 -25 15 -30 14 -105 -21 -584 -266
-1417 -299 -2073 -80 -420 139 -728 367 -863 638 -51 102 -70 183 -71 300 0
151 46 284 148 423 267 361 850 610 1526 651 183 12 181 12 363 1z m16996 -70
l0 -25 -13 24 c-15 28 -10 64 5 39 5 -7 9 -24 8 -38z m-124 -107 c-6 -77 -20
-123 -37 -123 -5 0 -8 24 -6 54 2 30 6 52 11 49 4 -2 7 4 7 15 0 21 20 82 26
82 3 0 2 -35 -1 -77z m16 -66 c-10 -9 -11 -8 -5 6 3 10 9 15 12 12 3 -3 0 -11
-7 -18z m-86 -75 c-3 -22 -17 -50 -30 -62 l-24 -23 26 67 c29 72 39 79 28 18z
m-8025 -1570 c102 -58 210 -119 241 -136 174 -97 919 -531 919 -535 0 -4 -8
-11 -19 -18 -16 -10 -80 24 -452 239 -566 327 -520 300 -709 413 -91 54 -196
116 -235 138 -38 22 -71 41 -73 42 -1 1 0 9 4 18 7 19 0 23 324 -161z m-7176
-1172 c60 -30 81 -64 82 -134 l1 -60 794 -448 c437 -246 880 -497 984 -556
105 -59 544 -308 978 -552 445 -251 787 -451 787 -458 0 -9 -6 -12 -15 -8 -9
3 -435 243 -948 532 -513 290 -954 539 -982 554 -27 16 -390 220 -805 455
-415 235 -769 434 -787 443 -30 14 -33 14 -63 -11 -44 -38 -125 -38 -168 -2
-17 14 -33 25 -37 25 -10 0 -896 -520 -914 -536 -11 -10 -8 -20 19 -58 70
-103 120 -259 120 -375 -1 -199 -87 -382 -264 -556 -420 -417 -1274 -626
-2074 -509 -366 53 -692 169 -937 332 -584 387 -618 949 -82 1363 569 440
1616 566 2434 293 275 -92 499 -221 666 -385 l88 -86 462 271 462 272 -3 46
c-5 68 35 132 98 157 38 15 60 13 104 -9z m15497 -490 c31 -25 12 -26 -21 0
-14 11 -20 20 -14 20 7 0 22 -9 35 -20z m-6951 -458 c151 -88 361 -209 465
-270 105 -60 191 -116 193 -124 3 -18 -6 -24 -197 -136 -95 -55 -156 -85 -176
-85 -21 0 -165 78 -485 262 -250 145 -463 270 -472 280 -10 9 -14 21 -10 28 4
6 86 57 182 113 131 76 181 100 200 96 14 -3 149 -76 300 -164z m-2560 -147
c0 -3 -20 -140 -45 -305 -25 -165 -45 -302 -45 -303 0 -2 -134 -82 -299 -176
-164 -95 -324 -193 -355 -217 -169 -133 -230 -313 -155 -462 46 -92 108 -141
377 -296 212 -121 241 -141 237 -160 -3 -11 -104 -687 -225 -1501 -121 -814
-223 -1494 -227 -1511 l-8 -31 -685 395 c-377 217 -1146 661 -1710 985 -780
450 -1035 601 -1069 635 -24 25 -55 70 -70 101 -23 49 -26 69 -26 156 0 89 3
106 28 157 35 71 98 135 174 178 82 46 2409 1387 3323 1916 421 243 768 443
773 443 4 1 7 -1 7 -4z m1748 -56 c34 -7 169 -79 428 -229 419 -241 432 -251
401 -314 -11 -24 -38 -46 -94 -79 -123 -72 -147 -80 -235 -75 -77 5 -78 5
-261 110 -294 170 -309 170 -582 13 -173 -99 -212 -115 -285 -115 -64 0 -115
16 -195 62 -126 73 -152 117 -102 172 30 35 731 437 787 452 57 16 78 16 138
3z m1851 -398 c199 -114 199 -114 182 -135 -7 -9 -70 -48 -140 -88 -69 -39
-142 -82 -161 -95 -57 -38 -84 -31 -243 61 -188 109 -197 115 -197 135 0 24
325 210 369 211 25 0 75 -24 190 -89z m-2804 -341 c1226 -705 1260 -725 1260
-756 0 -26 -12 -35 -145 -113 -119 -70 -154 -86 -196 -89 -30 -2 -61 1 -75 8
-92 48 -1418 816 -1433 831 -18 16 -18 20 -4 42 16 24 263 171 315 187 49 16
84 2 278 -110z m1093 24 c195 -113 200 -117 182 -139 -22 -26 -346 -205 -371
-205 -21 0 -332 170 -367 201 -7 6 -11 16 -9 22 5 18 349 216 375 217 13 0 98
-43 190 -96z m1164 -21 c201 -116 201 -113 -35 -248 -171 -98 -171 -98 -352 6
-81 46 -155 92 -166 102 -18 17 -19 21 -6 40 16 25 267 176 312 188 54 14 96
-1 247 -88z m1123 6 c177 -102 196 -115 189 -134 -3 -7 -81 -56 -173 -109
-119 -68 -177 -96 -200 -96 -49 0 -372 188 -369 214 4 23 331 216 368 216 14
0 97 -41 185 -91z m-3996 -307 c84 -48 157 -95 162 -105 17 -30 -7 -51 -156
-136 -199 -113 -199 -113 -394 0 -152 89 -173 107 -155 137 11 17 277 176 311
185 56 14 82 5 232 -81z m2279 -8 c81 -48 157 -93 170 -101 31 -19 27 -45 -11
-67 -272 -158 -307 -176 -339 -176 -23 1 -83 30 -202 98 -94 54 -171 103 -173
109 -6 17 9 28 182 129 112 65 170 93 193 94 24 0 73 -24 180 -86z m1167 -22
c139 -81 150 -90 150 -117 0 -27 -11 -35 -145 -113 -179 -105 -208 -111 -301
-62 -34 17 -105 58 -158 89 -87 51 -96 60 -96 86 0 27 9 35 110 93 250 145
234 145 440 24z m1147 -9 c140 -80 168 -100 166 -117 -4 -25 -329 -216 -368
-216 -36 0 -364 193 -368 216 -4 27 317 213 367 214 26 0 78 -25 203 -97z
m-4022 -289 c140 -80 180 -108 180 -130 0 -18 -45 -49 -185 -130 -113 -65
-124 -69 -180 -69 -57 1 -67 5 -205 86 -86 51 -146 92 -148 103 -6 27 22 51
132 115 225 131 218 131 406 25z m2312 -31 c137 -78 168 -100 166 -116 -4 -23
-314 -206 -362 -213 -44 -7 -371 183 -371 215 0 29 313 211 364 211 25 0 80
-26 203 -97z m1147 -8 c204 -118 205 -113 -19 -239 -186 -105 -188 -105 -389
11 -159 92 -175 109 -133 145 24 22 262 159 292 169 52 17 97 2 249 -86z
m1133 -2 c94 -54 173 -104 175 -111 3 -8 -1 -20 -8 -27 -32 -30 -332 -195
-356 -195 -22 0 -67 22 -214 105 -19 11 -63 36 -98 55 -74 42 -76 61 -11 97
25 14 92 53 150 86 140 81 152 87 173 87 11 0 95 -44 189 -97z m-4003 -300
c155 -89 179 -110 163 -139 -5 -9 -74 -54 -153 -100 -133 -77 -148 -84 -199
-84 -52 0 -67 6 -200 83 -151 87 -172 105 -154 135 10 16 146 100 263 163 85
46 105 42 280 -58z m1159 -18 c127 -72 152 -90 152 -110 0 -29 1 -28 -165
-124 -190 -110 -189 -110 -390 4 -82 46 -153 91 -157 100 -5 8 -5 23 1 33 11
20 239 156 300 179 61 22 99 10 259 -82z m1137 -2 c122 -71 171 -104 173 -118
2 -16 -30 -38 -168 -117 -114 -66 -180 -98 -200 -98 -42 0 -370 188 -370 212
0 21 2 22 194 132 83 47 161 86 176 86 14 0 102 -44 195 -97z m1153 -13 c111
-67 152 -96 152 -110 0 -25 -42 -56 -191 -140 -167 -94 -163 -95 -360 18 -143
82 -154 91 -154 117 0 26 10 35 100 88 256 151 243 151 453 27z m1142 -7 c110
-64 170 -104 170 -114 0 -17 -294 -194 -352 -213 -25 -8 -49 3 -208 94 -127
73 -180 108 -178 119 5 25 327 209 366 210 24 1 77 -25 202 -96z m-4029 -284
c164 -95 179 -106 179 -134 0 -28 -13 -38 -175 -130 -175 -100 -178 -100 -373
11 -85 48 -156 93 -159 101 -12 31 18 57 157 138 193 112 198 112 371 14z
m2322 -36 c119 -68 167 -100 167 -113 0 -27 -323 -213 -370 -214 -47 0 -363
182 -368 212 -3 16 26 37 160 113 176 102 193 109 223 102 11 -3 95 -48 188
-100z m-1159 16 c78 -45 147 -87 155 -94 32 -31 6 -58 -145 -144 -204 -117
-196 -117 -394 -4 -129 75 -155 93 -158 115 -4 31 -2 33 164 128 187 108 189
108 378 -1z m2286 -14 c74 -43 143 -85 153 -94 38 -32 18 -52 -138 -143 -201
-118 -196 -118 -397 -2 -82 48 -152 94 -155 102 -10 25 11 45 113 105 162 95
215 119 254 114 19 -3 96 -40 170 -82z m946 51 c5 -22 -8 -83 -24 -110 -2 -4
-12 9 -21 29 l-16 37 -45 -131 c-25 -72 -49 -131 -55 -130 -5 0 -50 24 -100
53 -58 34 -90 58 -90 69 0 12 51 48 160 111 88 52 166 95 172 95 7 1 15 -10
19 -23z m11344 -230 l95 -53 3 -126 c2 -119 1 -126 -18 -132 -11 -3 -20 -9
-20 -13 0 -4 172 -105 383 -226 210 -120 411 -235 447 -256 36 -20 149 -86
253 -145 103 -59 187 -113 187 -121 0 -8 -4 -14 -8 -14 -4 0 -129 70 -277 156
-149 86 -438 253 -644 372 l-374 215 -61 -31 c-33 -18 -64 -32 -68 -32 -5 0
-8 51 -8 113 l0 113 -97 54 c-118 64 -110 57 -92 75 17 17 180 105 194 105 6
0 53 -24 105 -54z m-14411 -556 c2366 -1367 2224 -1284 2226 -1316 3 -40 -20
-95 -37 -89 -10 4 -26 -30 -57 -120 -24 -69 -46 -127 -50 -129 -3 -2 -236 128
-516 291 -281 162 -519 298 -530 303 -11 5 -533 305 -1160 668 -1324 765
-1206 677 -1042 774 171 102 206 118 255 118 41 0 119 -43 911 -500z m430 405
c205 -118 206 -109 -30 -243 -174 -99 -175 -99 -376 15 -139 79 -153 89 -153
114 0 25 12 35 98 85 53 32 126 73 162 92 93 49 115 44 299 -63z m1136 -4
c116 -68 170 -104 170 -116 0 -23 -328 -215 -368 -215 -17 0 -93 38 -197 98
-186 106 -200 123 -137 155 17 9 95 53 172 97 77 43 151 79 165 80 14 0 102
-45 195 -99z m1137 -3 c79 -45 145 -83 147 -84 1 -2 -3 -22 -11 -45 -13 -40
-22 -47 -144 -118 -177 -104 -181 -104 -371 7 -78 46 -147 89 -153 97 -23 28
2 53 137 131 167 96 158 92 210 93 36 1 66 -12 185 -81z m7776 -155 c299 -194
608 -397 617 -405 12 -11 -56 12 -72 24 -7 5 -17 7 -23 3 -6 -4 -9 -1 -8 7 2
7 -3 12 -9 11 -12 -3 -182 102 -193 118 -3 4 -23 18 -45 31 -22 13 -80 50
-130 82 -92 61 -149 98 -242 156 -33 21 -53 40 -53 52 0 23 1 22 158 -79z
m-8326 -182 c100 -57 168 -102 168 -111 0 -15 -309 -200 -358 -215 -19 -5 -61
15 -203 96 -112 65 -179 109 -179 119 0 9 53 46 138 95 191 111 222 126 246
119 12 -3 96 -50 188 -103z m-1172 27 c161 -92 180 -106 180 -128 0 -24 -35
-49 -185 -135 -168 -97 -175 -97 -371 16 -122 71 -150 91 -152 111 -4 32 3 37
167 130 182 104 189 104 361 6z m599 -349 c79 -46 149 -92 155 -101 16 -26
-12 -49 -167 -138 -179 -102 -187 -102 -329 -23 -210 115 -234 137 -190 175
18 17 250 153 285 169 48 20 99 3 246 -82z m1002 76 c16 -9 38 -30 48 -47 18
-28 18 -33 4 -76 -14 -39 -18 -43 -28 -29 -17 24 -22 21 -30 -13 -4 -16 -12
-33 -20 -37 -7 -5 -27 -48 -44 -98 -18 -49 -33 -91 -35 -93 -2 -1 -73 37 -157
86 -111 64 -154 94 -154 107 0 14 47 46 170 117 93 54 180 98 193 98 13 0 36
-7 53 -15z m-428 -407 c78 -45 148 -87 156 -94 30 -27 -3 -57 -154 -144 -195
-111 -193 -111 -375 -5 -74 43 -143 85 -153 93 -38 33 -18 53 138 144 200 117
196 117 388 6z m179 -401 c-12 -30 -20 -69 -20 -86 2 -51 -13 -56 -68 -23 -53
31 -66 59 -37 84 23 21 137 87 141 83 2 -2 -5 -28 -16 -58z m4793 -3771 c688
-395 1932 -1110 2765 -1589 833 -479 1526 -877 1540 -885 24 -14 28 -13 60 16
18 17 37 29 42 26 4 -3 8 1 8 8 0 9 3 9 10 -2 8 -12 10 -12 10 5 0 16 2 17 10
5 8 -12 10 -12 16 3 3 9 10 17 16 17 5 0 6 -4 3 -10 -9 -15 7 -12 31 4 44 31
198 -30 267 -106 20 -23 37 -49 37 -58 0 -9 4 -20 10 -26 5 -5 11 -50 12 -100
l3 -90 258 -148 c205 -118 260 -146 271 -136 8 6 35 10 61 8 l46 -3 -101 -51
c-92 -47 -99 -49 -74 -23 15 16 25 31 23 34 -3 2 -117 69 -255 148 -234 135
-250 143 -262 126 -7 -11 -10 -23 -7 -29 3 -5 -5 -21 -19 -35 -14 -14 -21 -25
-15 -25 19 0 -1 -18 -54 -50 -49 -31 -51 -31 -28 -7 l24 26 -31 -11 c-17 -7
-29 -15 -26 -19 7 -13 -56 -21 -104 -15 -75 11 -104 17 -98 24 4 3 -21 19 -55
35 -33 16 -58 31 -55 35 4 3 -6 18 -21 34 -15 15 -28 38 -30 50 -21 140 -19
210 7 260 l19 36 -1577 908 c-2928 1685 -3937 2266 -4006 2306 -49 29 -65 43
-55 49 9 5 25 1 44 -10 16 -9 593 -340 1280 -735z m-2705 -653 c278 -160 530
-304 560 -321 30 -16 69 -38 87 -48 31 -18 32 -18 55 2 52 48 112 57 175 27
54 -25 75 -66 71 -139 l-4 -61 91 -53 c180 -106 512 -297 608 -349 53 -30 97
-57 97 -62 0 -23 -38 -11 -116 35 -119 71 -474 275 -549 316 -33 18 -79 44
-103 58 l-44 25 -42 -22 c-111 -55 -218 5 -222 123 l-2 51 -79 47 c-43 26
-315 184 -605 350 -459 264 -569 334 -499 315 9 -2 244 -135 521 -294z m3315
-924 c336 -25 626 -92 894 -206 202 -86 344 -178 484 -313 105 -100 186 -217
230 -332 30 -79 31 -90 31 -223 0 -133 -1 -144 -31 -223 -92 -239 -318 -454
-643 -611 -683 -330 -1695 -329 -2378 4 -187 91 -289 162 -418 290 -120 120
-177 203 -222 327 -24 66 -27 86 -27 213 0 127 3 147 27 213 203 556 1100 933
2053 861z m-2237 -347 c108 -63 130 -79 119 -89 -11 -11 -61 14 -283 142 -148
85 -274 163 -280 174 -5 11 -21 29 -35 40 -13 12 59 -27 161 -85 102 -59 245
-141 318 -182z m7517 -987 c-5 -2 -35 -11 -65 -19 l-55 -16 25 20 c16 12 40
19 65 19 22 0 36 -2 30 -4z m1150 -65 c828 -59 1462 -396 1629 -868 27 -79 30
-99 30 -207 0 -108 -3 -128 -30 -207 -155 -436 -711 -761 -1465 -855 -181 -22
-555 -22 -737 1 -753 92 -1311 418 -1466 854 -27 79 -30 98 -30 207 0 105 3
130 28 200 34 99 72 166 147 260 329 415 1116 670 1894 615z m-1396 -13 c-2
-2 -24 -12 -49 -21 l-45 -18 19 21 c11 12 31 21 49 21 17 0 28 -2 26 -3z
m-1866 -714 c-7 -2 -19 -2 -25 0 -7 3 -2 5 12 5 14 0 19 -2 13 -5z"/>
<path d="M39055 34290 c-728 -47 -1322 -318 -1555 -710 -64 -107 -93 -208 -94
-325 -1 -119 13 -183 64 -290 71 -150 186 -275 360 -394 730 -501 2064 -505
2810 -10 122 81 282 239 339 336 210 356 83 746 -333 1025 -397 265 -1005 406
-1591 368z m360 -120 c176 -25 350 -93 471 -182 188 -140 248 -347 156 -538
-16 -32 -56 -84 -97 -125 -122 -123 -355 -221 -569 -241 l-76 -7 0 -58 0 -59
65 0 65 0 0 -294 0 -293 -61 -7 c-34 -3 -120 -6 -190 -6 l-129 0 0 300 0 300
65 0 65 0 0 59 0 58 -76 7 c-178 16 -381 92 -512 191 -146 110 -221 273 -192
417 45 232 291 415 634 472 98 17 285 19 381 6z"/>
<path d="M39116 34050 c-122 -14 -232 -45 -333 -95 -212 -104 -301 -258 -246
-421 25 -75 134 -178 243 -232 408 -199 1013 -86 1162 217 32 64 32 159 0 224
-103 208 -475 346 -826 307z"/>
<path d="M37959 31099 c-720 -55 -1335 -361 -1537 -764 -147 -295 -57 -624
238 -870 105 -88 201 -147 354 -220 702 -336 1733 -318 2415 41 549 289 741
733 493 1134 -25 42 -86 115 -136 166 -367 367 -1090 570 -1827 513z m1098
-535 c316 -197 570 -360 566 -364 -4 -4 -204 -121 -443 -260 -239 -140 -622
-363 -851 -497 -229 -134 -421 -243 -428 -243 -16 0 -1133 695 -1134 706 0 5
190 121 424 258 233 137 618 363 854 502 237 139 432 253 434 253 2 1 262
-159 578 -355z"/>
<path d="M38452 30527 c-23 -155 -42 -288 -42 -294 0 -14 236 -16 737 -4 l272
6 -432 268 c-238 147 -446 276 -463 287 l-30 20 -42 -283z"/>
<path d="M38060 30573 c-212 -124 -536 -313 -720 -420 -184 -108 -341 -201
-349 -208 -11 -11 -3 -12 45 -9 33 3 187 14 344 25 709 48 847 59 874 69 40
14 73 46 85 84 6 17 31 168 56 336 24 168 46 315 48 328 3 12 4 22 3 21 0 0
-174 -102 -386 -226z"/>
<path d="M38391 30135 c-23 -101 -109 -165 -222 -165 -24 0 -67 -3 -95 -6
l-50 -6 -33 -227 c-17 -124 -38 -268 -47 -320 -8 -52 -13 -95 -12 -97 2 -1
179 101 393 227 215 126 546 320 736 431 191 112 346 204 345 205 0 0 -226 4
-502 8 l-500 8 -13 -58z"/>
<path d="M37820 29949 c-63 -4 -287 -18 -497 -30 -211 -13 -379 -27 -375 -31
5 -5 217 -138 473 -297 423 -263 465 -286 471 -267 6 20 45 297 68 496 7 52
14 105 17 118 4 18 1 22 -18 21 -13 -1 -76 -5 -139 -10z"/>
<path d="M57505 20939 c-615 -47 -1171 -280 -1426 -597 -69 -86 -131 -202
-153 -289 -20 -78 -21 -231 -1 -308 185 -716 1532 -1113 2662 -784 299 87 553
223 732 394 180 172 261 339 261 540 0 102 -17 181 -60 272 -236 508 -1106
841 -2015 772z m795 -449 c29 -44 56 -80 61 -80 4 0 66 23 136 50 l128 51 98
-52 c53 -28 97 -56 97 -61 0 -5 -20 -41 -45 -78 -24 -38 -41 -71 -37 -73 4 -3
71 -19 148 -37 l142 -33 16 -75 c11 -52 13 -77 6 -82 -6 -4 -69 -19 -141 -35
l-130 -29 76 -76 c41 -41 75 -78 75 -82 0 -13 -169 -138 -186 -138 -9 0 -73
18 -142 41 -68 22 -126 38 -128 36 -2 -2 -21 -46 -42 -98 l-38 -94 -149 0
-149 0 -46 77 c-25 42 -48 79 -51 82 -3 3 -64 -17 -135 -45 -71 -27 -139 -48
-151 -46 -22 4 -22 2 -16 -53 l6 -57 -69 -7 c-38 -4 -86 -9 -107 -12 l-37 -6
50 -63 50 -63 -69 -41 c-38 -22 -75 -41 -81 -41 -7 0 -52 18 -101 40 -49 22
-90 40 -92 40 -1 0 -18 -30 -37 -66 l-35 -66 -98 6 c-54 4 -103 9 -110 12 -7
2 -23 30 -36 62 -32 75 -33 76 -73 63 -18 -6 -49 -13 -68 -16 -19 -3 -50 -10
-69 -15 -31 -8 -40 -5 -102 38 -38 26 -69 51 -69 57 0 5 23 33 52 62 l51 52
-29 6 c-16 4 -54 13 -84 20 -30 7 -67 16 -82 19 -27 6 -28 9 -28 71 0 74 -11
66 124 85 44 6 81 12 83 14 2 2 -19 31 -47 64 l-51 61 63 32 63 32 75 -18 c41
-9 88 -21 104 -26 46 -14 50 -12 79 47 l28 56 62 -6 c151 -16 141 -11 173 -78
16 -33 32 -61 35 -64 4 -2 51 8 104 22 l98 26 71 -50 71 -50 28 38 c15 21 27
42 27 48 0 5 -63 15 -141 22 -84 8 -146 18 -153 26 -14 13 -29 165 -18 175 4
3 67 21 140 40 72 19 132 37 132 41 0 3 -34 36 -75 73 -41 37 -75 71 -75 75 0
4 37 31 82 59 l82 53 146 -21 c80 -12 150 -21 156 -21 7 0 24 36 40 80 l27 80
142 0 142 0 53 -80z"/>
<path d="M58054 20232 c-95 -33 -144 -88 -144 -163 0 -63 31 -106 104 -144
105 -53 270 -46 356 16 104 75 106 177 6 254 -72 55 -220 72 -322 37z"/>
<path d="M56957 19736 c-49 -18 -67 -34 -83 -73 -31 -74 34 -148 153 -173 70
-15 148 1 194 39 29 25 34 35 34 74 0 53 -25 86 -90 119 -51 27 -156 34 -208
14z"/>
<path d="M57492 19708 c5 -14 97 -52 105 -44 5 4 -90 56 -103 56 -3 0 -4 -6
-2 -12z"/>
<path d="M63961 19539 c-634 -46 -1213 -294 -1460 -627 -399 -538 24 -1147
959 -1382 245 -61 441 -84 730 -84 288 0 484 23 730 84 424 106 777 307 956
543 339 448 99 970 -581 1262 -386 165 -862 238 -1334 204z m742 -547 c331
-210 532 -343 537 -356 14 -37 81 -426 75 -436 -3 -5 -187 -130 -409 -279
l-404 -270 -168 107 c-654 412 -1295 821 -1297 826 -4 11 1116 755 1127 749 6
-3 249 -157 539 -341z"/>
<path d="M63663 18922 c-271 -180 -493 -330 -493 -333 0 -4 219 -146 488 -317
268 -170 565 -360 661 -421 96 -62 180 -110 187 -107 20 8 736 487 732 490 -1
2 -76 36 -166 76 -89 40 -165 76 -167 80 -2 4 56 54 130 111 105 80 132 106
123 115 -13 11 -995 634 -1000 634 -2 0 -225 -147 -495 -328z m617 152 c0 -6
-178 -130 -396 -275 l-396 -264 -19 24 c-11 13 -18 28 -17 33 2 4 181 127 398
272 394 263 395 264 412 242 10 -11 18 -26 18 -32z m181 -145 c8 -15 -44 -54
-388 -284 l-397 -267 -24 27 -23 27 308 207 c169 115 349 235 398 268 93 63
103 64 126 22z m189 -123 c0 -6 -179 -130 -397 -275 l-396 -263 -18 23 c-10
13 -19 27 -19 31 0 5 179 127 398 273 396 265 397 265 415 244 9 -12 17 -26
17 -33z m174 -97 c16 -26 16 -33 5 -40 -8 -4 -187 -123 -399 -264 l-385 -255
-23 26 -23 26 53 37 c169 115 744 500 748 500 3 1 14 -13 24 -30z"/>
<path d="M63481 38774 c106 -63 172 -98 178 -95 2 2 7 -2 10 -7 3 -5 31 1 66
15 55 21 57 23 23 20 -20 -1 -34 1 -32 5 3 4 -7 8 -22 8 -41 0 -18 17 45 33
45 12 51 15 30 20 -28 7 -363 57 -381 57 -6 0 31 -25 83 -56z"/>
<path d="M63783 38683 c9 -2 23 -2 30 0 6 3 -1 5 -18 5 -16 0 -22 -2 -12 -5z"/>
<path d="M65708 38053 c7 -3 16 -2 19 1 4 3 -2 6 -13 5 -11 0 -14 -3 -6 -6z"/>
<path d="M49831 37053 c1 -620 4 -908 11 -887 6 20 25 40 54 57 46 28 59 33
50 19 -2 -4 -1 -14 4 -22 7 -11 13 -11 34 4 l26 16 0 814 0 814 -67 39 c-38
22 -78 46 -90 52 l-23 12 1 -918z"/>
<path d="M58292 33175 c-190 -49 -332 -131 -610 -353 -20 -15 -20 -14 123
-232 188 -287 393 -524 560 -648 137 -102 315 -172 437 -172 23 0 70 5 104 11
l62 11 -5 32 c-4 27 1 40 26 68 l31 36 0 388 c0 214 -3 405 -6 424 -4 25 -14
41 -35 52 -47 28 -71 75 -66 133 2 28 8 58 11 67 6 12 -7 28 -51 62 -173 136
-366 177 -581 121z"/>
<path d="M59088 32773 c-17 -4 -18 -33 -18 -429 0 -322 3 -424 12 -424 7 0 24
-12 39 -26 l26 -25 39 22 c77 43 244 184 244 206 0 71 -288 687 -318 682 -4
-1 -15 -3 -24 -6z"/>
<path d="M61035 31364 c77 -133 149 -234 163 -229 7 3 18 5 23 5 5 0 9 52 9
115 0 130 13 115 -110 135 -36 6 -76 14 -89 17 l-25 6 29 -49z"/>
<path d="M61655 31357 c-28 -12 -19 -15 139 -41 92 -15 170 -25 173 -22 4 3
-25 20 -63 37 -80 37 -197 49 -249 26z"/>
<path d="M61280 31257 l0 -105 38 -19 37 -18 58 77 c32 43 72 88 88 101 l31
24 -93 17 c-52 9 -109 19 -126 22 l-33 6 0 -105z"/>
<path d="M61505 31248 c-31 -34 -73 -85 -92 -114 -29 -43 -33 -56 -24 -72 20
-37 13 -106 -14 -146 -30 -44 -35 -33 88 -211 119 -171 268 -370 370 -491 l82
-98 185 -53 c398 -115 882 -244 888 -238 7 7 -136 298 -230 470 -140 255 -271
459 -399 625 -91 117 -248 281 -291 303 -28 15 -435 87 -488 87 -10 0 -44 -28
-75 -62z"/>
<path d="M62217 31126 c234 -245 465 -602 713 -1102 l110 -222 92 -23 92 -22
44 49 c24 27 62 73 84 102 37 47 40 55 29 78 -22 48 -14 84 27 122 l37 35 3
443 3 443 -23 5 c-13 3 -142 22 -288 41 -146 20 -416 59 -600 86 -184 28 -353
53 -375 56 l-40 6 92 -97z"/>
<path d="M63486 31023 c-3 -4 -6 -208 -6 -454 0 -443 0 -448 21 -454 28 -9 53
-66 45 -100 -4 -15 -19 -38 -34 -52 -26 -24 -27 -29 -31 -148 l-3 -124 38 -10
c851 -224 2313 -534 3419 -725 474 -82 1398 -224 1570 -241 33 -3 143 -17 245
-30 180 -24 511 -64 558 -68 21 -2 29 11 78 133 158 392 297 862 384 1300 41
205 93 540 85 548 -3 3 -280 8 -617 13 -337 4 -653 10 -703 13 -114 7 -261 14
-595 26 -1143 44 -2410 141 -3605 276 -317 35 -769 90 -816 98 -15 3 -29 2
-33 -1z"/>
<path d="M62019 30002 c88 -101 270 -261 386 -339 223 -150 391 -170 588 -72
91 46 89 41 59 110 -14 33 -33 64 -41 69 -9 4 -104 31 -211 59 -211 56 -792
218 -818 229 -9 3 7 -22 37 -56z"/>
<path d="M63060 29753 c1 -4 11 -28 24 -52 l23 -44 39 35 39 36 -45 12 c-25 6
-53 13 -62 16 -10 3 -18 2 -18 -3z"/>
<path d="M59917 29269 c7 -7 15 -10 18 -7 3 3 -2 9 -12 12 -14 6 -15 5 -6 -5z"/>
<path d="M62700 28607 l0 -113 94 -52 c51 -29 96 -52 100 -52 3 0 6 51 6 113
0 106 -1 113 -23 122 -12 6 -57 30 -99 54 l-78 42 0 -114z"/>
<path d="M67591 25841 c0 -120 0 -120 27 -139 37 -26 162 -92 173 -92 5 0 9
52 9 115 0 63 -4 115 -9 115 -15 0 -175 91 -188 107 -8 11 -11 -14 -12 -106z"/>
<path d="M62375 24059 c-729 -55 -1346 -364 -1535 -772 -43 -91 -60 -170 -60
-272 0 -200 81 -368 261 -540 519 -495 1628 -658 2499 -368 334 111 616 292
768 494 49 65 115 203 132 277 17 74 15 216 -5 291 -66 254 -282 476 -631 647
-392 192 -915 281 -1429 243z m750 -543 l540 -343 16 -84 c9 -46 26 -140 38
-209 12 -69 24 -132 27 -141 3 -13 -95 -83 -399 -287 -223 -149 -409 -272
-414 -274 -10 -3 -202 117 -987 615 -263 167 -478 308 -478 312 -1 8 1100 754
1112 754 3 0 248 -154 545 -343z"/>
<path d="M62082 23439 c-272 -182 -492 -332 -490 -334 1 -1 246 -157 543 -345
297 -189 595 -378 662 -421 67 -44 124 -79 127 -79 3 0 172 111 376 247 l370
246 -170 76 c-93 42 -170 79 -170 83 0 4 61 54 135 111 l134 105 -501 318
c-276 176 -507 320 -513 321 -5 1 -232 -147 -503 -328z m613 175 c9 -14 15
-27 13 -29 -22 -18 -790 -525 -796 -525 -16 0 -36 50 -25 61 21 21 768 518
779 518 7 1 19 -11 29 -25z m194 -179 c0 -5 -178 -129 -396 -274 l-395 -265
-19 25 c-10 13 -18 27 -16 31 1 5 180 127 397 273 l394 266 18 -23 c10 -13 17
-27 17 -33z m174 -85 l18 -29 -398 -266 -398 -265 -22 27 c-12 15 -20 29 -18
32 9 8 790 530 795 530 3 1 14 -12 23 -29z m187 -120 l21 -30 -402 -266 -402
-266 -18 23 c-10 13 -19 27 -19 31 0 5 788 538 796 538 2 0 12 -14 24 -30z"/>
</g>
</svg>
